# Tiled2Unity generated file. Do not modify by hand.
# Wavefront file for 'Level-4_mesh_0003.obj'

# Vertices (Count = 96)
v -50 -8 0
v -51 -8 0
v -51 -7 0
v -50 -7 0
v -51 -8 0
v -52 -8 0
v -52 -7 0
v -51 -7 0
v -52 -8 0
v -53 -8 0
v -53 -7 0
v -52 -7 0
v -53 -8 0
v -54 -8 0
v -54 -7 0
v -53 -7 0
v -54 -8 0
v -55 -8 0
v -55 -7 0
v -54 -7 0
v -55 -8 0
v -56 -8 0
v -56 -7 0
v -55 -7 0
v -56 -8 0
v -57 -8 0
v -57 -7 0
v -56 -7 0
v -57 -8 0
v -58 -8 0
v -58 -7 0
v -57 -7 0
v -58 -8 0
v -59 -8 0
v -59 -7 0
v -58 -7 0
v -59 -8 0
v -60 -8 0
v -60 -7 0
v -59 -7 0
v -50 -9 0
v -51 -9 0
v -51 -8 0
v -50 -8 0
v -51 -9 0
v -52 -9 0
v -52 -8 0
v -51 -8 0
v -52 -9 0
v -53 -9 0
v -53 -8 0
v -52 -8 0
v -53 -9 0
v -54 -9 0
v -54 -8 0
v -53 -8 0
v -54 -9 0
v -55 -9 0
v -55 -8 0
v -54 -8 0
v -55 -9 0
v -56 -9 0
v -56 -8 0
v -55 -8 0
v -56 -9 0
v -57 -9 0
v -57 -8 0
v -56 -8 0
v -57 -9 0
v -58 -9 0
v -58 -8 0
v -57 -8 0
v -58 -9 0
v -59 -9 0
v -59 -8 0
v -58 -8 0
v -59 -9 0
v -60 -9 0
v -60 -8 0
v -59 -8 0
v -51 -39 0
v -52 -39 0
v -52 -38 0
v -51 -38 0
v -52 -39 0
v -53 -39 0
v -53 -38 0
v -52 -38 0
v -51 -40 0
v -52 -40 0
v -52 -39 0
v -51 -39 0
v -52 -40 0
v -53 -40 0
v -53 -39 0
v -52 -39 0

# Texture cooridinates (Count = 9)
vt 0.2 0.125
vt 0.2333333 0.125
vt 0.2333333 0.25
vt 0.2 0.25
vt 0.2666667 0.125
vt 0.2666667 0.25
vt 0.2 0
vt 0.2333333 0
vt 0.2666667 0

# Normal
vn 0 0 -1

# Mesh description
g Level-4_mesh_0003

# Faces
f 1/1/1 2/2/1 3/3/1 4/4/1
f 5/2/1 6/5/1 7/6/1 8/3/1
f 9/1/1 10/2/1 11/3/1 12/4/1
f 13/2/1 14/5/1 15/6/1 16/3/1
f 17/1/1 18/2/1 19/3/1 20/4/1
f 21/2/1 22/5/1 23/6/1 24/3/1
f 25/1/1 26/2/1 27/3/1 28/4/1
f 29/2/1 30/5/1 31/6/1 32/3/1
f 33/1/1 34/2/1 35/3/1 36/4/1
f 37/2/1 38/5/1 39/6/1 40/3/1
f 41/7/1 42/8/1 43/2/1 44/1/1
f 45/8/1 46/9/1 47/5/1 48/2/1
f 49/7/1 50/8/1 51/2/1 52/1/1
f 53/8/1 54/9/1 55/5/1 56/2/1
f 57/7/1 58/8/1 59/2/1 60/1/1
f 61/8/1 62/9/1 63/5/1 64/2/1
f 65/7/1 66/8/1 67/2/1 68/1/1
f 69/8/1 70/9/1 71/5/1 72/2/1
f 73/7/1 74/8/1 75/2/1 76/1/1
f 77/8/1 78/9/1 79/5/1 80/2/1
f 81/1/1 82/2/1 83/3/1 84/4/1
f 85/2/1 86/5/1 87/6/1 88/3/1
f 89/7/1 90/8/1 91/2/1 92/1/1
f 93/8/1 94/9/1 95/5/1 96/2/1

