# Tiled2Unity generated file. Do not modify by hand.
# Wavefront file for 'forest-(1)_mesh_0003.obj'

# Vertices (Count = 80)
v -17 -9 0
v -18 -9 0
v -18 -8 0
v -17 -8 0
v -18 -9 0
v -19 -9 0
v -19 -8 0
v -18 -8 0
v -17 -10 0
v -18 -10 0
v -18 -9 0
v -17 -9 0
v -18 -10 0
v -19 -10 0
v -19 -9 0
v -18 -9 0
v -29 -30 0
v -30 -30 0
v -30 -29 0
v -29 -29 0
v -30 -30 0
v -31 -30 0
v -31 -29 0
v -30 -29 0
v -31 -30 0
v -32 -30 0
v -32 -29 0
v -31 -29 0
v -32 -30 0
v -33 -30 0
v -33 -29 0
v -32 -29 0
v -29 -31 0
v -30 -31 0
v -30 -30 0
v -29 -30 0
v -30 -31 0
v -31 -31 0
v -31 -30 0
v -30 -30 0
v -31 -31 0
v -32 -31 0
v -32 -30 0
v -31 -30 0
v -32 -31 0
v -33 -31 0
v -33 -30 0
v -32 -30 0
v -29 -32 0
v -30 -32 0
v -30 -31 0
v -29 -31 0
v -30 -32 0
v -31 -32 0
v -31 -31 0
v -30 -31 0
v -31 -32 0
v -32 -32 0
v -32 -31 0
v -31 -31 0
v -32 -32 0
v -33 -32 0
v -33 -31 0
v -32 -31 0
v -29 -33 0
v -30 -33 0
v -30 -32 0
v -29 -32 0
v -30 -33 0
v -31 -33 0
v -31 -32 0
v -30 -32 0
v -31 -33 0
v -32 -33 0
v -32 -32 0
v -31 -32 0
v -32 -33 0
v -33 -33 0
v -33 -32 0
v -32 -32 0

# Texture cooridinates (Count = 34)
vt 0.2666667 0.125
vt 0.3 0.125
vt 0.3 0.25
vt 0.2666667 0.25
vt 0.3333333 0.125
vt 0.3333333 0.25
vt 0.2666667 0
vt 0.3 0
vt 0.3333333 0
vt 0 0.875
vt 0.03333334 0.875
vt 0.03333334 1
vt 0 1
vt 0.06666667 0.875
vt 0.06666667 1
vt 0.1 0.875
vt 0.1 1
vt 0.1333333 0.875
vt 0.1333333 1
vt 0 0.75
vt 0.03333334 0.75
vt 0.06666667 0.75
vt 0.1 0.75
vt 0.1333333 0.75
vt 0 0.625
vt 0.03333334 0.625
vt 0.06666667 0.625
vt 0.1 0.625
vt 0.1333333 0.625
vt 0 0.5
vt 0.03333334 0.5
vt 0.06666667 0.5
vt 0.1 0.5
vt 0.1333333 0.5

# Normal
vn 0 0 -1

# Mesh description
g forest-(1)_mesh_0003

# Faces
f 1/1/1 2/2/1 3/3/1 4/4/1
f 5/2/1 6/5/1 7/6/1 8/3/1
f 9/7/1 10/8/1 11/2/1 12/1/1
f 13/8/1 14/9/1 15/5/1 16/2/1
f 17/10/1 18/11/1 19/12/1 20/13/1
f 21/11/1 22/14/1 23/15/1 24/12/1
f 25/14/1 26/16/1 27/17/1 28/15/1
f 29/16/1 30/18/1 31/19/1 32/17/1
f 33/20/1 34/21/1 35/11/1 36/10/1
f 37/21/1 38/22/1 39/14/1 40/11/1
f 41/22/1 42/23/1 43/16/1 44/14/1
f 45/23/1 46/24/1 47/18/1 48/16/1
f 49/25/1 50/26/1 51/21/1 52/20/1
f 53/26/1 54/27/1 55/22/1 56/21/1
f 57/27/1 58/28/1 59/23/1 60/22/1
f 61/28/1 62/29/1 63/24/1 64/23/1
f 65/30/1 66/31/1 67/26/1 68/25/1
f 69/31/1 70/32/1 71/27/1 72/26/1
f 73/32/1 74/33/1 75/28/1 76/27/1
f 77/33/1 78/34/1 79/29/1 80/28/1

