# Tiled2Unity generated file. Do not modify by hand.
# Wavefront file for 'forest-(1)_mesh_0007.obj'

# Vertices (Count = 16)
v -38 -36 0
v -39 -36 0
v -39 -35 0
v -38 -35 0
v -39 -36 0
v -40 -36 0
v -40 -35 0
v -39 -35 0
v -38 -37 0
v -39 -37 0
v -39 -36 0
v -38 -36 0
v -39 -37 0
v -40 -37 0
v -40 -36 0
v -39 -36 0

# Texture cooridinates (Count = 9)
vt 0.3571429 0.160221
vt 0.3928571 0.160221
vt 0.3928571 0.2044199
vt 0.3571429 0.2044199
vt 0.4285714 0.160221
vt 0.4285714 0.2044199
vt 0.3571429 0.1160221
vt 0.3928571 0.1160221
vt 0.4285714 0.1160221

# Normal
vn 0 0 -1

# Mesh description
g forest-(1)_mesh_0007

# Faces
f 1/1/1 2/2/1 3/3/1 4/4/1
f 5/2/1 6/5/1 7/6/1 8/3/1
f 9/7/1 10/8/1 11/2/1 12/1/1
f 13/8/1 14/9/1 15/5/1 16/2/1

