# Tiled2Unity generated file. Do not modify by hand.
# Wavefront file for 'final-level_mesh_0011.obj'

# Vertices (Count = 48)
v -13 -29 0
v -14 -29 0
v -14 -28 0
v -13 -28 0
v -14 -29 0
v -15 -29 0
v -15 -28 0
v -14 -28 0
v -13 -30 0
v -14 -30 0
v -14 -29 0
v -13 -29 0
v -14 -30 0
v -15 -30 0
v -15 -29 0
v -14 -29 0
v -35 -31 0
v -36 -31 0
v -36 -30 0
v -35 -30 0
v -36 -31 0
v -37 -31 0
v -37 -30 0
v -36 -30 0
v -35 -32 0
v -36 -32 0
v -36 -31 0
v -35 -31 0
v -36 -32 0
v -37 -32 0
v -37 -31 0
v -36 -31 0
v -29 -39 0
v -30 -39 0
v -30 -38 0
v -29 -38 0
v -30 -39 0
v -31 -39 0
v -31 -38 0
v -30 -38 0
v -29 -40 0
v -30 -40 0
v -30 -39 0
v -29 -39 0
v -30 -40 0
v -31 -40 0
v -31 -39 0
v -30 -39 0

# Texture cooridinates (Count = 24)
vt 0.5333334 0.625
vt 0.5666667 0.625
vt 0.5666667 0.75
vt 0.5333334 0.75
vt 0.6 0.625
vt 0.6 0.75
vt 0.5333334 0.5
vt 0.5666667 0.5
vt 0.6 0.5
vt 0.5333334 0.875
vt 0.5666667 0.875
vt 0.5666667 1
vt 0.5333334 1
vt 0.6 0.875
vt 0.6 1
vt 0.2666667 0.125
vt 0.3 0.125
vt 0.3 0.25
vt 0.2666667 0.25
vt 0.3333333 0.125
vt 0.3333333 0.25
vt 0.2666667 0
vt 0.3 0
vt 0.3333333 0

# Normal
vn 0 0 -1

# Mesh description
g final-level_mesh_0011

# Faces
f 1/1/1 2/2/1 3/3/1 4/4/1
f 5/2/1 6/5/1 7/6/1 8/3/1
f 9/7/1 10/8/1 11/2/1 12/1/1
f 13/8/1 14/9/1 15/5/1 16/2/1
f 17/10/1 18/11/1 19/12/1 20/13/1
f 21/11/1 22/14/1 23/15/1 24/12/1
f 25/4/1 26/3/1 27/11/1 28/10/1
f 29/3/1 30/6/1 31/14/1 32/11/1
f 33/16/1 34/17/1 35/18/1 36/19/1
f 37/17/1 38/20/1 39/21/1 40/18/1
f 41/22/1 42/23/1 43/17/1 44/16/1
f 45/23/1 46/24/1 47/20/1 48/17/1

