# Tiled2Unity generated file. Do not modify by hand.
# Wavefront file for 'final-level_mesh_0007.obj'

# Vertices (Count = 304)
v -18 -1 0
v -19 -1 0
v -19 0 0
v -18 0 0
v -19 -1 0
v -20 -1 0
v -20 0 0
v -19 0 0
v -18 -2 0
v -19 -2 0
v -19 -1 0
v -18 -1 0
v -19 -2 0
v -20 -2 0
v -20 -1 0
v -19 -1 0
v -18 -3 0
v -19 -3 0
v -19 -2 0
v -18 -2 0
v -19 -3 0
v -20 -3 0
v -20 -2 0
v -19 -2 0
v -18 -4 0
v -19 -4 0
v -19 -3 0
v -18 -3 0
v -19 -4 0
v -20 -4 0
v -20 -3 0
v -19 -3 0
v -18 -5 0
v -19 -5 0
v -19 -4 0
v -18 -4 0
v -19 -5 0
v -20 -5 0
v -20 -4 0
v -19 -4 0
v -18 -6 0
v -19 -6 0
v -19 -5 0
v -18 -5 0
v -19 -6 0
v -20 -6 0
v -20 -5 0
v -19 -5 0
v -18 -7 0
v -19 -7 0
v -19 -6 0
v -18 -6 0
v -19 -7 0
v -20 -7 0
v -20 -6 0
v -19 -6 0
v -18 -8 0
v -19 -8 0
v -19 -7 0
v -18 -7 0
v -19 -8 0
v -20 -8 0
v -20 -7 0
v -19 -7 0
v -18 -9 0
v -19 -9 0
v -19 -8 0
v -18 -8 0
v -19 -9 0
v -20 -9 0
v -20 -8 0
v -19 -8 0
v -18 -10 0
v -19 -10 0
v -19 -9 0
v -18 -9 0
v -19 -10 0
v -20 -10 0
v -20 -9 0
v -19 -9 0
v -18 -11 0
v -19 -11 0
v -19 -10 0
v -18 -10 0
v -19 -11 0
v -20 -11 0
v -20 -10 0
v -19 -10 0
v -18 -12 0
v -19 -12 0
v -19 -11 0
v -18 -11 0
v -19 -12 0
v -20 -12 0
v -20 -11 0
v -19 -11 0
v -18 -13 0
v -19 -13 0
v -19 -12 0
v -18 -12 0
v -19 -13 0
v -20 -13 0
v -20 -12 0
v -19 -12 0
v -18 -14 0
v -19 -14 0
v -19 -13 0
v -18 -13 0
v -19 -14 0
v -20 -14 0
v -20 -13 0
v -19 -13 0
v -18 -15 0
v -19 -15 0
v -19 -14 0
v -18 -14 0
v -19 -15 0
v -20 -15 0
v -20 -14 0
v -19 -14 0
v -18 -16 0
v -19 -16 0
v -19 -15 0
v -18 -15 0
v -19 -16 0
v -20 -16 0
v -20 -15 0
v -19 -15 0
v -18 -24 0
v -19 -24 0
v -19 -23 0
v -18 -23 0
v -19 -24 0
v -20 -24 0
v -20 -23 0
v -19 -23 0
v -18 -25 0
v -19 -25 0
v -19 -24 0
v -18 -24 0
v -19 -25 0
v -20 -25 0
v -20 -24 0
v -19 -24 0
v -18 -26 0
v -19 -26 0
v -19 -25 0
v -18 -25 0
v -19 -26 0
v -20 -26 0
v -20 -25 0
v -19 -25 0
v -18 -27 0
v -19 -27 0
v -19 -26 0
v -18 -26 0
v -19 -27 0
v -20 -27 0
v -20 -26 0
v -19 -26 0
v -18 -28 0
v -19 -28 0
v -19 -27 0
v -18 -27 0
v -19 -28 0
v -20 -28 0
v -20 -27 0
v -19 -27 0
v -18 -29 0
v -19 -29 0
v -19 -28 0
v -18 -28 0
v -19 -29 0
v -20 -29 0
v -20 -28 0
v -19 -28 0
v -18 -30 0
v -19 -30 0
v -19 -29 0
v -18 -29 0
v -19 -30 0
v -20 -30 0
v -20 -29 0
v -19 -29 0
v -18 -31 0
v -19 -31 0
v -19 -30 0
v -18 -30 0
v -19 -31 0
v -20 -31 0
v -20 -30 0
v -19 -30 0
v -18 -32 0
v -19 -32 0
v -19 -31 0
v -18 -31 0
v -19 -32 0
v -20 -32 0
v -20 -31 0
v -19 -31 0
v -18 -33 0
v -19 -33 0
v -19 -32 0
v -18 -32 0
v -19 -33 0
v -20 -33 0
v -20 -32 0
v -19 -32 0
v -18 -34 0
v -19 -34 0
v -19 -33 0
v -18 -33 0
v -19 -34 0
v -20 -34 0
v -20 -33 0
v -19 -33 0
v -18 -35 0
v -19 -35 0
v -19 -34 0
v -18 -34 0
v -19 -35 0
v -20 -35 0
v -20 -34 0
v -19 -34 0
v -18 -36 0
v -19 -36 0
v -19 -35 0
v -18 -35 0
v -19 -36 0
v -20 -36 0
v -20 -35 0
v -19 -35 0
v -18 -37 0
v -19 -37 0
v -19 -36 0
v -18 -36 0
v -19 -37 0
v -20 -37 0
v -20 -36 0
v -19 -36 0
v -18 -39 0
v -19 -39 0
v -19 -38 0
v -18 -38 0
v -19 -39 0
v -20 -39 0
v -20 -38 0
v -19 -38 0
v -41 -39 0
v -42 -39 0
v -42 -38 0
v -41 -38 0
v -42 -39 0
v -43 -39 0
v -43 -38 0
v -42 -38 0
v -18 -40 0
v -19 -40 0
v -19 -39 0
v -18 -39 0
v -19 -40 0
v -20 -40 0
v -20 -39 0
v -19 -39 0
v -41 -40 0
v -42 -40 0
v -42 -39 0
v -41 -39 0
v -42 -40 0
v -43 -40 0
v -43 -39 0
v -42 -39 0
v -18 -41 0
v -19 -41 0
v -19 -40 0
v -18 -40 0
v -19 -41 0
v -20 -41 0
v -20 -40 0
v -19 -40 0
v -18 -42 0
v -19 -42 0
v -19 -41 0
v -18 -41 0
v -19 -42 0
v -20 -42 0
v -20 -41 0
v -19 -41 0
v -18 -44 0
v -19 -44 0
v -19 -43 0
v -18 -43 0
v -19 -44 0
v -20 -44 0
v -20 -43 0
v -19 -43 0
v -18 -45 0
v -19 -45 0
v -19 -44 0
v -18 -44 0
v -19 -45 0
v -20 -45 0
v -20 -44 0
v -19 -44 0

# Texture cooridinates (Count = 15)
vt 0.2222222 0.5625
vt 0.2777778 0.5625
vt 0.2777778 0.625
vt 0.2222222 0.625
vt 0.3333333 0.5625
vt 0.3333333 0.625
vt 0.2222222 0.5
vt 0.2777778 0.5
vt 0.3333333 0.5
vt 0.1111111 0.5625
vt 0.1666667 0.5625
vt 0.1666667 0.625
vt 0.1111111 0.625
vt 0.1111111 0.5
vt 0.1666667 0.5

# Normal
vn 0 0 -1

# Mesh description
g final-level_mesh_0007

# Faces
f 1/1/1 2/2/1 3/3/1 4/4/1
f 5/2/1 6/5/1 7/6/1 8/3/1
f 9/7/1 10/8/1 11/2/1 12/1/1
f 13/8/1 14/9/1 15/5/1 16/2/1
f 17/1/1 18/2/1 19/3/1 20/4/1
f 21/2/1 22/5/1 23/6/1 24/3/1
f 25/7/1 26/8/1 27/2/1 28/1/1
f 29/8/1 30/9/1 31/5/1 32/2/1
f 33/1/1 34/2/1 35/3/1 36/4/1
f 37/2/1 38/5/1 39/6/1 40/3/1
f 41/7/1 42/8/1 43/2/1 44/1/1
f 45/8/1 46/9/1 47/5/1 48/2/1
f 49/1/1 50/2/1 51/3/1 52/4/1
f 53/2/1 54/5/1 55/6/1 56/3/1
f 57/7/1 58/8/1 59/2/1 60/1/1
f 61/8/1 62/9/1 63/5/1 64/2/1
f 65/10/1 66/11/1 67/12/1 68/13/1
f 69/11/1 70/1/1 71/4/1 72/12/1
f 73/14/1 74/15/1 75/11/1 76/10/1
f 77/15/1 78/7/1 79/1/1 80/11/1
f 81/1/1 82/2/1 83/3/1 84/4/1
f 85/2/1 86/5/1 87/6/1 88/3/1
f 89/7/1 90/8/1 91/2/1 92/1/1
f 93/8/1 94/9/1 95/5/1 96/2/1
f 97/10/1 98/11/1 99/12/1 100/13/1
f 101/11/1 102/1/1 103/4/1 104/12/1
f 105/14/1 106/15/1 107/11/1 108/10/1
f 109/15/1 110/7/1 111/1/1 112/11/1
f 113/1/1 114/2/1 115/3/1 116/4/1
f 117/2/1 118/5/1 119/6/1 120/3/1
f 121/7/1 122/8/1 123/2/1 124/1/1
f 125/8/1 126/9/1 127/5/1 128/2/1
f 129/1/1 130/2/1 131/3/1 132/4/1
f 133/2/1 134/5/1 135/6/1 136/3/1
f 137/7/1 138/8/1 139/2/1 140/1/1
f 141/8/1 142/9/1 143/5/1 144/2/1
f 145/10/1 146/11/1 147/12/1 148/13/1
f 149/11/1 150/1/1 151/4/1 152/12/1
f 153/14/1 154/15/1 155/11/1 156/10/1
f 157/15/1 158/7/1 159/1/1 160/11/1
f 161/1/1 162/2/1 163/3/1 164/4/1
f 165/2/1 166/5/1 167/6/1 168/3/1
f 169/7/1 170/8/1 171/2/1 172/1/1
f 173/8/1 174/9/1 175/5/1 176/2/1
f 177/10/1 178/11/1 179/12/1 180/13/1
f 181/11/1 182/1/1 183/4/1 184/12/1
f 185/14/1 186/15/1 187/11/1 188/10/1
f 189/15/1 190/7/1 191/1/1 192/11/1
f 193/1/1 194/2/1 195/3/1 196/4/1
f 197/2/1 198/5/1 199/6/1 200/3/1
f 201/7/1 202/8/1 203/2/1 204/1/1
f 205/8/1 206/9/1 207/5/1 208/2/1
f 209/10/1 210/11/1 211/12/1 212/13/1
f 213/11/1 214/1/1 215/4/1 216/12/1
f 217/14/1 218/15/1 219/11/1 220/10/1
f 221/15/1 222/7/1 223/1/1 224/11/1
f 225/1/1 226/2/1 227/3/1 228/4/1
f 229/2/1 230/5/1 231/6/1 232/3/1
f 233/7/1 234/8/1 235/2/1 236/1/1
f 237/8/1 238/9/1 239/5/1 240/2/1
f 241/1/1 242/2/1 243/3/1 244/4/1
f 245/2/1 246/5/1 247/6/1 248/3/1
f 249/10/1 250/11/1 251/12/1 252/13/1
f 253/11/1 254/1/1 255/4/1 256/12/1
f 257/7/1 258/8/1 259/2/1 260/1/1
f 261/8/1 262/9/1 263/5/1 264/2/1
f 265/14/1 266/15/1 267/11/1 268/10/1
f 269/15/1 270/7/1 271/1/1 272/11/1
f 273/10/1 274/11/1 275/12/1 276/13/1
f 277/11/1 278/1/1 279/4/1 280/12/1
f 281/14/1 282/15/1 283/11/1 284/10/1
f 285/15/1 286/7/1 287/1/1 288/11/1
f 289/1/1 290/2/1 291/3/1 292/4/1
f 293/2/1 294/5/1 295/6/1 296/3/1
f 297/7/1 298/8/1 299/2/1 300/1/1
f 301/8/1 302/9/1 303/5/1 304/2/1

