# Tiled2Unity generated file. Do not modify by hand.
# Wavefront file for 'final-level_mesh_0009.obj'

# Vertices (Count = 32)
v -15 -16 0
v -16 -16 0
v -16 -15 0
v -15 -15 0
v -16 -16 0
v -17 -16 0
v -17 -15 0
v -16 -15 0
v -15 -17 0
v -16 -17 0
v -16 -16 0
v -15 -16 0
v -16 -17 0
v -17 -17 0
v -17 -16 0
v -16 -16 0
v -12 -42 0
v -13 -42 0
v -13 -41 0
v -12 -41 0
v -13 -42 0
v -14 -42 0
v -14 -41 0
v -13 -41 0
v -12 -43 0
v -13 -43 0
v -13 -42 0
v -12 -42 0
v -13 -43 0
v -14 -43 0
v -14 -42 0
v -13 -42 0

# Texture cooridinates (Count = 18)
vt 0.2 0.9545454
vt 0.25 0.9545454
vt 0.25 1
vt 0.2 1
vt 0.3 0.9545454
vt 0.3 1
vt 0.2 0.9090909
vt 0.25 0.9090909
vt 0.3 0.9090909
vt 0.5 0.9545454
vt 0.55 0.9545454
vt 0.55 1
vt 0.5 1
vt 0.6 0.9545454
vt 0.6 1
vt 0.5 0.9090909
vt 0.55 0.9090909
vt 0.6 0.9090909

# Normal
vn 0 0 -1

# Mesh description
g final-level_mesh_0009

# Faces
f 1/1/1 2/2/1 3/3/1 4/4/1
f 5/2/1 6/5/1 7/6/1 8/3/1
f 9/7/1 10/8/1 11/2/1 12/1/1
f 13/8/1 14/9/1 15/5/1 16/2/1
f 17/10/1 18/11/1 19/12/1 20/13/1
f 21/11/1 22/14/1 23/15/1 24/12/1
f 25/16/1 26/17/1 27/11/1 28/10/1
f 29/17/1 30/18/1 31/14/1 32/11/1

