# Tiled2Unity generated file. Do not modify by hand.
# Wavefront file for 'final-level_mesh_0003.obj'

# Vertices (Count = 20)
v -10 -1 0
v -11 -1 0
v -11 0 0
v -10 0 0
v -8 -3 0
v -9 -3 0
v -9 -2 0
v -8 -2 0
v -10 -3 0
v -11 -3 0
v -11 -2 0
v -10 -2 0
v -12 -3 0
v -13 -3 0
v -13 -2 0
v -12 -2 0
v -10 -5 0
v -11 -5 0
v -11 -4 0
v -10 -4 0

# Texture cooridinates (Count = 8)
vt 0.1428571 0.7142857
vt 0.2857143 0.7142857
vt 0.2857143 0.8571429
vt 0.1428571 0.8571429
vt 0.1428571 0.2857143
vt 0.2857143 0.2857143
vt 0.2857143 0.4285714
vt 0.1428571 0.4285714

# Normal
vn 0 0 -1

# Mesh description
g final-level_mesh_0003

# Faces
f 1/1/1 2/2/1 3/3/1 4/4/1
f 5/1/1 6/2/1 7/3/1 8/4/1
f 9/5/1 10/6/1 11/7/1 12/8/1
f 13/1/1 14/2/1 15/3/1 16/4/1
f 17/1/1 18/2/1 19/3/1 20/4/1

