# Tiled2Unity generated file. Do not modify by hand.
# Wavefront file for 'final-level_mesh_0008.obj'

# Vertices (Count = 208)
v -3 -7 0
v -4 -7 0
v -4 -6 0
v -3 -6 0
v -3 -9 0
v -4 -9 0
v -4 -8 0
v -3 -8 0
v -3 -10 0
v -4 -10 0
v -4 -9 0
v -3 -9 0
v -2 -12 0
v -3 -12 0
v -3 -11 0
v -2 -11 0
v -2 -13 0
v -3 -13 0
v -3 -12 0
v -2 -12 0
v -2 -14 0
v -3 -14 0
v -3 -13 0
v -2 -13 0
v -3 -15 0
v -4 -15 0
v -4 -14 0
v -3 -14 0
v -3 -16 0
v -4 -16 0
v -4 -15 0
v -3 -15 0
v -3 -17 0
v -4 -17 0
v -4 -16 0
v -3 -16 0
v -3 -18 0
v -4 -18 0
v -4 -17 0
v -3 -17 0
v -3 -19 0
v -4 -19 0
v -4 -18 0
v -3 -18 0
v -5 -20 0
v -6 -20 0
v -6 -19 0
v -5 -19 0
v -6 -20 0
v -7 -20 0
v -7 -19 0
v -6 -19 0
v -7 -20 0
v -8 -20 0
v -8 -19 0
v -7 -19 0
v -8 -20 0
v -9 -20 0
v -9 -19 0
v -8 -19 0
v -9 -20 0
v -10 -20 0
v -10 -19 0
v -9 -19 0
v -10 -20 0
v -11 -20 0
v -11 -19 0
v -10 -19 0
v -11 -20 0
v -12 -20 0
v -12 -19 0
v -11 -19 0
v -12 -20 0
v -13 -20 0
v -13 -19 0
v -12 -19 0
v -13 -20 0
v -14 -20 0
v -14 -19 0
v -13 -19 0
v -14 -20 0
v -15 -20 0
v -15 -19 0
v -14 -19 0
v -15 -20 0
v -16 -20 0
v -16 -19 0
v -15 -19 0
v -16 -20 0
v -17 -20 0
v -17 -19 0
v -16 -19 0
v -17 -20 0
v -18 -20 0
v -18 -19 0
v -17 -19 0
v -5 -21 0
v -6 -21 0
v -6 -20 0
v -5 -20 0
v -6 -21 0
v -7 -21 0
v -7 -20 0
v -6 -20 0
v -7 -21 0
v -8 -21 0
v -8 -20 0
v -7 -20 0
v -8 -21 0
v -9 -21 0
v -9 -20 0
v -8 -20 0
v -9 -21 0
v -10 -21 0
v -10 -20 0
v -9 -20 0
v -10 -21 0
v -11 -21 0
v -11 -20 0
v -10 -20 0
v -11 -21 0
v -12 -21 0
v -12 -20 0
v -11 -20 0
v -12 -21 0
v -13 -21 0
v -13 -20 0
v -12 -20 0
v -13 -21 0
v -14 -21 0
v -14 -20 0
v -13 -20 0
v -14 -21 0
v -15 -21 0
v -15 -20 0
v -14 -20 0
v -15 -21 0
v -16 -21 0
v -16 -20 0
v -15 -20 0
v -16 -21 0
v -17 -21 0
v -17 -20 0
v -16 -20 0
v -17 -21 0
v -18 -21 0
v -18 -20 0
v -17 -20 0
v -3 -22 0
v -4 -22 0
v -4 -21 0
v -3 -21 0
v -3 -23 0
v -4 -23 0
v -4 -22 0
v -3 -22 0
v -3 -24 0
v -4 -24 0
v -4 -23 0
v -3 -23 0
v -2 -25 0
v -3 -25 0
v -3 -24 0
v -2 -24 0
v -2 -26 0
v -3 -26 0
v -3 -25 0
v -2 -25 0
v -2 -27 0
v -3 -27 0
v -3 -26 0
v -2 -26 0
v -3 -28 0
v -4 -28 0
v -4 -27 0
v -3 -27 0
v -3 -29 0
v -4 -29 0
v -4 -28 0
v -3 -28 0
v -3 -30 0
v -4 -30 0
v -4 -29 0
v -3 -29 0
v -3 -31 0
v -4 -31 0
v -4 -30 0
v -3 -30 0
v -3 -32 0
v -4 -32 0
v -4 -31 0
v -3 -31 0
v 0 -33 0
v -1 -33 0
v -1 -32 0
v 0 -32 0
v -1 -33 0
v -2 -33 0
v -2 -32 0
v -1 -32 0
v -2 -33 0
v -3 -33 0
v -3 -32 0
v -2 -32 0
v -3 -33 0
v -4 -33 0
v -4 -32 0
v -3 -32 0

# Texture cooridinates (Count = 28)
vt 0.2777778 0.95
vt 0.3333333 0.95
vt 0.3333333 1
vt 0.2777778 1
vt 0.2777778 0.9
vt 0.3333333 0.9
vt 0.2777778 0.85
vt 0.3333333 0.85
vt 0.3888889 0.95
vt 0.4444444 0.95
vt 0.4444444 1
vt 0.3888889 1
vt 0.5 0.95
vt 0.5 1
vt 0.5555556 0.95
vt 0.5555556 1
vt 0.3888889 0.9
vt 0.4444444 0.9
vt 0.5 0.9
vt 0.5555556 0.9
vt 0.2777778 0.8
vt 0.3333333 0.8
vt 0.2777778 0.75
vt 0.3333333 0.75
vt 0.2222222 0.7
vt 0.2777778 0.7
vt 0.2222222 0.75
vt 0.3333333 0.7

# Normal
vn 0 0 -1

# Mesh description
g final-level_mesh_0008

# Faces
f 1/1/1 2/2/1 3/3/1 4/4/1
f 5/5/1 6/6/1 7/2/1 8/1/1
f 9/7/1 10/8/1 11/6/1 12/5/1
f 13/5/1 14/6/1 15/2/1 16/1/1
f 17/5/1 18/6/1 19/2/1 20/1/1
f 21/5/1 22/6/1 23/2/1 24/1/1
f 25/1/1 26/2/1 27/3/1 28/4/1
f 29/5/1 30/6/1 31/2/1 32/1/1
f 33/5/1 34/6/1 35/2/1 36/1/1
f 37/5/1 38/6/1 39/2/1 40/1/1
f 41/7/1 42/8/1 43/6/1 44/5/1
f 45/9/1 46/10/1 47/11/1 48/12/1
f 49/10/1 50/13/1 51/14/1 52/11/1
f 53/13/1 54/15/1 55/16/1 56/14/1
f 57/9/1 58/10/1 59/11/1 60/12/1
f 61/10/1 62/13/1 63/14/1 64/11/1
f 65/13/1 66/15/1 67/16/1 68/14/1
f 69/13/1 70/15/1 71/16/1 72/14/1
f 73/9/1 74/10/1 75/11/1 76/12/1
f 77/10/1 78/13/1 79/14/1 80/11/1
f 81/13/1 82/15/1 83/16/1 84/14/1
f 85/9/1 86/10/1 87/11/1 88/12/1
f 89/10/1 90/13/1 91/14/1 92/11/1
f 93/13/1 94/15/1 95/16/1 96/14/1
f 97/17/1 98/18/1 99/10/1 100/9/1
f 101/18/1 102/19/1 103/13/1 104/10/1
f 105/19/1 106/20/1 107/15/1 108/13/1
f 109/17/1 110/18/1 111/10/1 112/9/1
f 113/18/1 114/19/1 115/13/1 116/10/1
f 117/19/1 118/20/1 119/15/1 120/13/1
f 121/19/1 122/20/1 123/15/1 124/13/1
f 125/17/1 126/18/1 127/10/1 128/9/1
f 129/18/1 130/19/1 131/13/1 132/10/1
f 133/19/1 134/20/1 135/15/1 136/13/1
f 137/17/1 138/18/1 139/10/1 140/9/1
f 141/18/1 142/19/1 143/13/1 144/10/1
f 145/19/1 146/20/1 147/15/1 148/13/1
f 149/5/1 150/6/1 151/2/1 152/1/1
f 153/5/1 154/6/1 155/2/1 156/1/1
f 157/7/1 158/8/1 159/6/1 160/5/1
f 161/5/1 162/6/1 163/2/1 164/1/1
f 165/5/1 166/6/1 167/2/1 168/1/1
f 169/5/1 170/6/1 171/2/1 172/1/1
f 173/1/1 174/2/1 175/3/1 176/4/1
f 177/5/1 178/6/1 179/2/1 180/1/1
f 181/7/1 182/8/1 183/6/1 184/5/1
f 185/21/1 186/22/1 187/8/1 188/7/1
f 189/23/1 190/24/1 191/22/1 192/21/1
f 193/25/1 194/26/1 195/23/1 196/27/1
f 197/25/1 198/26/1 199/23/1 200/27/1
f 201/25/1 202/26/1 203/23/1 204/27/1
f 205/26/1 206/28/1 207/24/1 208/23/1

