# Tiled2Unity generated file. Do not modify by hand.
# Wavefront file for 'forest-(3)_mesh_0006.obj'

# Vertices (Count = 32)
v -40 -14 0
v -41 -14 0
v -41 -13 0
v -40 -13 0
v -41 -14 0
v -42 -14 0
v -42 -13 0
v -41 -13 0
v -40 -15 0
v -41 -15 0
v -41 -14 0
v -40 -14 0
v -41 -15 0
v -42 -15 0
v -42 -14 0
v -41 -14 0
v 0 -19 0
v -1 -19 0
v -1 -18 0
v 0 -18 0
v -1 -19 0
v -2 -19 0
v -2 -18 0
v -1 -18 0
v 0 -20 0
v -1 -20 0
v -1 -19 0
v 0 -19 0
v -1 -20 0
v -2 -20 0
v -2 -19 0
v -1 -19 0

# Texture cooridinates (Count = 18)
vt 0.2 0.9545454
vt 0.25 0.9545454
vt 0.25 1
vt 0.2 1
vt 0.3 0.9545454
vt 0.3 1
vt 0.2 0.9090909
vt 0.25 0.9090909
vt 0.3 0.9090909
vt 0 0.9545454
vt 0.05 0.9545454
vt 0.05 1
vt 0 1
vt 0.1 0.9545454
vt 0.1 1
vt 0 0.9090909
vt 0.05 0.9090909
vt 0.1 0.9090909

# Normal
vn 0 0 -1

# Mesh description
g forest-(3)_mesh_0006

# Faces
f 1/1/1 2/2/1 3/3/1 4/4/1
f 5/2/1 6/5/1 7/6/1 8/3/1
f 9/7/1 10/8/1 11/2/1 12/1/1
f 13/8/1 14/9/1 15/5/1 16/2/1
f 17/10/1 18/11/1 19/12/1 20/13/1
f 21/11/1 22/14/1 23/15/1 24/12/1
f 25/16/1 26/17/1 27/11/1 28/10/1
f 29/17/1 30/18/1 31/14/1 32/11/1

