# Tiled2Unity generated file. Do not modify by hand.
# Wavefront file for 'ThesisRPGMap16x16_mesh_0004.obj'

# Vertices (Count = 944)
v -384 -16 0
v -400 -16 0
v -400 0 0
v -384 0 0
v -368 -16 0
v -384 -16 0
v -384 0 0
v -368 0 0
v -352 -16 0
v -368 -16 0
v -368 0 0
v -352 0 0
v -336 -16 0
v -352 -16 0
v -352 0 0
v -336 0 0
v -320 -16 0
v -336 -16 0
v -336 0 0
v -320 0 0
v -304 -16 0
v -320 -16 0
v -320 0 0
v -304 0 0
v -288 -16 0
v -304 -16 0
v -304 0 0
v -288 0 0
v -272 -16 0
v -288 -16 0
v -288 0 0
v -272 0 0
v -208 -16 0
v -224 -16 0
v -224 0 0
v -208 0 0
v -192 -16 0
v -208 -16 0
v -208 0 0
v -192 0 0
v -176 -16 0
v -192 -16 0
v -192 0 0
v -176 0 0
v -160 -16 0
v -176 -16 0
v -176 0 0
v -160 0 0
v -144 -16 0
v -160 -16 0
v -160 0 0
v -144 0 0
v -128 -16 0
v -144 -16 0
v -144 0 0
v -128 0 0
v -112 -16 0
v -128 -16 0
v -128 0 0
v -112 0 0
v -96 -16 0
v -112 -16 0
v -112 0 0
v -96 0 0
v -80 -16 0
v -96 -16 0
v -96 0 0
v -80 0 0
v -384 -32 0
v -400 -32 0
v -400 -16 0
v -384 -16 0
v -368 -32 0
v -384 -32 0
v -384 -16 0
v -368 -16 0
v -352 -32 0
v -368 -32 0
v -368 -16 0
v -352 -16 0
v -336 -32 0
v -352 -32 0
v -352 -16 0
v -336 -16 0
v -320 -32 0
v -336 -32 0
v -336 -16 0
v -320 -16 0
v -304 -32 0
v -320 -32 0
v -320 -16 0
v -304 -16 0
v -288 -32 0
v -304 -32 0
v -304 -16 0
v -288 -16 0
v -272 -32 0
v -288 -32 0
v -288 -16 0
v -272 -16 0
v -208 -32 0
v -224 -32 0
v -224 -16 0
v -208 -16 0
v -192 -32 0
v -208 -32 0
v -208 -16 0
v -192 -16 0
v -176 -32 0
v -192 -32 0
v -192 -16 0
v -176 -16 0
v -160 -32 0
v -176 -32 0
v -176 -16 0
v -160 -16 0
v -144 -32 0
v -160 -32 0
v -160 -16 0
v -144 -16 0
v -128 -32 0
v -144 -32 0
v -144 -16 0
v -128 -16 0
v -112 -32 0
v -128 -32 0
v -128 -16 0
v -112 -16 0
v -96 -32 0
v -112 -32 0
v -112 -16 0
v -96 -16 0
v -80 -32 0
v -96 -32 0
v -96 -16 0
v -80 -16 0
v -368 -48 0
v -384 -48 0
v -384 -32 0
v -368 -32 0
v -352 -48 0
v -368 -48 0
v -368 -32 0
v -352 -32 0
v -336 -48 0
v -352 -48 0
v -352 -32 0
v -336 -32 0
v -320 -48 0
v -336 -48 0
v -336 -32 0
v -320 -32 0
v -192 -48 0
v -208 -48 0
v -208 -32 0
v -192 -32 0
v -176 -48 0
v -192 -48 0
v -192 -32 0
v -176 -32 0
v -160 -48 0
v -176 -48 0
v -176 -32 0
v -160 -32 0
v -144 -48 0
v -160 -48 0
v -160 -32 0
v -144 -32 0
v -128 -48 0
v -144 -48 0
v -144 -32 0
v -128 -32 0
v -112 -48 0
v -128 -48 0
v -128 -32 0
v -112 -32 0
v -96 -48 0
v -112 -48 0
v -112 -32 0
v -96 -32 0
v -368 -64 0
v -384 -64 0
v -384 -48 0
v -368 -48 0
v -352 -64 0
v -368 -64 0
v -368 -48 0
v -352 -48 0
v -336 -64 0
v -352 -64 0
v -352 -48 0
v -336 -48 0
v -192 -64 0
v -208 -64 0
v -208 -48 0
v -192 -48 0
v -176 -64 0
v -192 -64 0
v -192 -48 0
v -176 -48 0
v -160 -64 0
v -176 -64 0
v -176 -48 0
v -160 -48 0
v -144 -64 0
v -160 -64 0
v -160 -48 0
v -144 -48 0
v -128 -64 0
v -144 -64 0
v -144 -48 0
v -128 -48 0
v -112 -64 0
v -128 -64 0
v -128 -48 0
v -112 -48 0
v -176 -80 0
v -192 -80 0
v -192 -64 0
v -176 -64 0
v -160 -80 0
v -176 -80 0
v -176 -64 0
v -160 -64 0
v -144 -80 0
v -160 -80 0
v -160 -64 0
v -144 -64 0
v -128 -80 0
v -144 -80 0
v -144 -64 0
v -128 -64 0
v -112 -80 0
v -128 -80 0
v -128 -64 0
v -112 -64 0
v -176 -96 0
v -192 -96 0
v -192 -80 0
v -176 -80 0
v -160 -96 0
v -176 -96 0
v -176 -80 0
v -160 -80 0
v -144 -96 0
v -160 -96 0
v -160 -80 0
v -144 -80 0
v -128 -96 0
v -144 -96 0
v -144 -80 0
v -128 -80 0
v -192 -112 0
v -208 -112 0
v -208 -96 0
v -192 -96 0
v -176 -112 0
v -192 -112 0
v -192 -96 0
v -176 -96 0
v -160 -112 0
v -176 -112 0
v -176 -96 0
v -160 -96 0
v -144 -112 0
v -160 -112 0
v -160 -96 0
v -144 -96 0
v -128 -112 0
v -144 -112 0
v -144 -96 0
v -128 -96 0
v -32 -112 0
v -48 -112 0
v -48 -96 0
v -32 -96 0
v -16 -112 0
v -32 -112 0
v -32 -96 0
v -16 -96 0
v -192 -128 0
v -208 -128 0
v -208 -112 0
v -192 -112 0
v -176 -128 0
v -192 -128 0
v -192 -112 0
v -176 -112 0
v -160 -128 0
v -176 -128 0
v -176 -112 0
v -160 -112 0
v -144 -128 0
v -160 -128 0
v -160 -112 0
v -144 -112 0
v -128 -128 0
v -144 -128 0
v -144 -112 0
v -128 -112 0
v -48 -128 0
v -64 -128 0
v -64 -112 0
v -48 -112 0
v -32 -128 0
v -48 -128 0
v -48 -112 0
v -32 -112 0
v -16 -128 0
v -32 -128 0
v -32 -112 0
v -16 -112 0
v -368 -144 0
v -384 -144 0
v -384 -128 0
v -368 -128 0
v -192 -144 0
v -208 -144 0
v -208 -128 0
v -192 -128 0
v -176 -144 0
v -192 -144 0
v -192 -128 0
v -176 -128 0
v -160 -144 0
v -176 -144 0
v -176 -128 0
v -160 -128 0
v -144 -144 0
v -160 -144 0
v -160 -128 0
v -144 -128 0
v -48 -144 0
v -64 -144 0
v -64 -128 0
v -48 -128 0
v -32 -144 0
v -48 -144 0
v -48 -128 0
v -32 -128 0
v -16 -144 0
v -32 -144 0
v -32 -128 0
v -16 -128 0
v -368 -160 0
v -384 -160 0
v -384 -144 0
v -368 -144 0
v -352 -160 0
v -368 -160 0
v -368 -144 0
v -352 -144 0
v -192 -160 0
v -208 -160 0
v -208 -144 0
v -192 -144 0
v -176 -160 0
v -192 -160 0
v -192 -144 0
v -176 -144 0
v -160 -160 0
v -176 -160 0
v -176 -144 0
v -160 -144 0
v -144 -160 0
v -160 -160 0
v -160 -144 0
v -144 -144 0
v -128 -160 0
v -144 -160 0
v -144 -144 0
v -128 -144 0
v -48 -160 0
v -64 -160 0
v -64 -144 0
v -48 -144 0
v -32 -160 0
v -48 -160 0
v -48 -144 0
v -32 -144 0
v -368 -176 0
v -384 -176 0
v -384 -160 0
v -368 -160 0
v -192 -176 0
v -208 -176 0
v -208 -160 0
v -192 -160 0
v -176 -176 0
v -192 -176 0
v -192 -160 0
v -176 -160 0
v -160 -176 0
v -176 -176 0
v -176 -160 0
v -160 -160 0
v -144 -176 0
v -160 -176 0
v -160 -160 0
v -144 -160 0
v -128 -176 0
v -144 -176 0
v -144 -160 0
v -128 -160 0
v -368 -192 0
v -384 -192 0
v -384 -176 0
v -368 -176 0
v -192 -192 0
v -208 -192 0
v -208 -176 0
v -192 -176 0
v -176 -192 0
v -192 -192 0
v -192 -176 0
v -176 -176 0
v -160 -192 0
v -176 -192 0
v -176 -176 0
v -160 -176 0
v -144 -192 0
v -160 -192 0
v -160 -176 0
v -144 -176 0
v -128 -192 0
v -144 -192 0
v -144 -176 0
v -128 -176 0
v -208 -208 0
v -224 -208 0
v -224 -192 0
v -208 -192 0
v -192 -208 0
v -208 -208 0
v -208 -192 0
v -192 -192 0
v -176 -208 0
v -192 -208 0
v -192 -192 0
v -176 -192 0
v -160 -208 0
v -176 -208 0
v -176 -192 0
v -160 -192 0
v -208 -224 0
v -224 -224 0
v -224 -208 0
v -208 -208 0
v -192 -224 0
v -208 -224 0
v -208 -208 0
v -192 -208 0
v -176 -224 0
v -192 -224 0
v -192 -208 0
v -176 -208 0
v -160 -224 0
v -176 -224 0
v -176 -208 0
v -160 -208 0
v -448 -272 0
v -464 -272 0
v -464 -256 0
v -448 -256 0
v -432 -272 0
v -448 -272 0
v -448 -256 0
v -432 -256 0
v -416 -272 0
v -432 -272 0
v -432 -256 0
v -416 -256 0
v -400 -272 0
v -416 -272 0
v -416 -256 0
v -400 -256 0
v -80 -272 0
v -96 -272 0
v -96 -256 0
v -80 -256 0
v -64 -272 0
v -80 -272 0
v -80 -256 0
v -64 -256 0
v -48 -272 0
v -64 -272 0
v -64 -256 0
v -48 -256 0
v -480 -288 0
v -496 -288 0
v -496 -272 0
v -480 -272 0
v -464 -288 0
v -480 -288 0
v -480 -272 0
v -464 -272 0
v -448 -288 0
v -464 -288 0
v -464 -272 0
v -448 -272 0
v -432 -288 0
v -448 -288 0
v -448 -272 0
v -432 -272 0
v -416 -288 0
v -432 -288 0
v -432 -272 0
v -416 -272 0
v -400 -288 0
v -416 -288 0
v -416 -272 0
v -400 -272 0
v -128 -288 0
v -144 -288 0
v -144 -272 0
v -128 -272 0
v -112 -288 0
v -128 -288 0
v -128 -272 0
v -112 -272 0
v -96 -288 0
v -112 -288 0
v -112 -272 0
v -96 -272 0
v -80 -288 0
v -96 -288 0
v -96 -272 0
v -80 -272 0
v -64 -288 0
v -80 -288 0
v -80 -272 0
v -64 -272 0
v -48 -288 0
v -64 -288 0
v -64 -272 0
v -48 -272 0
v -480 -304 0
v -496 -304 0
v -496 -288 0
v -480 -288 0
v -464 -304 0
v -480 -304 0
v -480 -288 0
v -464 -288 0
v -448 -304 0
v -464 -304 0
v -464 -288 0
v -448 -288 0
v -432 -304 0
v -448 -304 0
v -448 -288 0
v -432 -288 0
v -128 -304 0
v -144 -304 0
v -144 -288 0
v -128 -288 0
v -112 -304 0
v -128 -304 0
v -128 -288 0
v -112 -288 0
v -96 -304 0
v -112 -304 0
v -112 -288 0
v -96 -288 0
v -80 -304 0
v -96 -304 0
v -96 -288 0
v -80 -288 0
v -64 -304 0
v -80 -304 0
v -80 -288 0
v -64 -288 0
v -48 -304 0
v -64 -304 0
v -64 -288 0
v -48 -288 0
v -112 -320 0
v -128 -320 0
v -128 -304 0
v -112 -304 0
v -96 -320 0
v -112 -320 0
v -112 -304 0
v -96 -304 0
v -80 -320 0
v -96 -320 0
v -96 -304 0
v -80 -304 0
v -432 -352 0
v -448 -352 0
v -448 -336 0
v -432 -336 0
v -416 -352 0
v -432 -352 0
v -432 -336 0
v -416 -336 0
v -400 -352 0
v -416 -352 0
v -416 -336 0
v -400 -336 0
v -384 -352 0
v -400 -352 0
v -400 -336 0
v -384 -336 0
v -432 -368 0
v -448 -368 0
v -448 -352 0
v -432 -352 0
v -416 -368 0
v -432 -368 0
v -432 -352 0
v -416 -352 0
v -400 -368 0
v -416 -368 0
v -416 -352 0
v -400 -352 0
v -384 -368 0
v -400 -368 0
v -400 -352 0
v -384 -352 0
v -368 -368 0
v -384 -368 0
v -384 -352 0
v -368 -352 0
v -448 -384 0
v -464 -384 0
v -464 -368 0
v -448 -368 0
v -432 -384 0
v -448 -384 0
v -448 -368 0
v -432 -368 0
v -416 -384 0
v -432 -384 0
v -432 -368 0
v -416 -368 0
v -400 -384 0
v -416 -384 0
v -416 -368 0
v -400 -368 0
v -384 -384 0
v -400 -384 0
v -400 -368 0
v -384 -368 0
v -368 -384 0
v -384 -384 0
v -384 -368 0
v -368 -368 0
v -448 -400 0
v -464 -400 0
v -464 -384 0
v -448 -384 0
v -432 -400 0
v -448 -400 0
v -448 -384 0
v -432 -384 0
v -416 -400 0
v -432 -400 0
v -432 -384 0
v -416 -384 0
v -400 -400 0
v -416 -400 0
v -416 -384 0
v -400 -384 0
v -384 -400 0
v -400 -400 0
v -400 -384 0
v -384 -384 0
v -368 -400 0
v -384 -400 0
v -384 -384 0
v -368 -384 0
v -448 -416 0
v -464 -416 0
v -464 -400 0
v -448 -400 0
v -432 -416 0
v -448 -416 0
v -448 -400 0
v -432 -400 0
v -416 -416 0
v -432 -416 0
v -432 -400 0
v -416 -400 0
v -400 -416 0
v -416 -416 0
v -416 -400 0
v -400 -400 0
v -384 -416 0
v -400 -416 0
v -400 -400 0
v -384 -400 0
v -128 -464 0
v -144 -464 0
v -144 -448 0
v -128 -448 0
v -112 -464 0
v -128 -464 0
v -128 -448 0
v -112 -448 0
v -96 -464 0
v -112 -464 0
v -112 -448 0
v -96 -448 0
v -80 -464 0
v -96 -464 0
v -96 -448 0
v -80 -448 0
v -224 -480 0
v -240 -480 0
v -240 -464 0
v -224 -464 0
v -208 -480 0
v -224 -480 0
v -224 -464 0
v -208 -464 0
v -192 -480 0
v -208 -480 0
v -208 -464 0
v -192 -464 0
v -144 -480 0
v -160 -480 0
v -160 -464 0
v -144 -464 0
v -128 -480 0
v -144 -480 0
v -144 -464 0
v -128 -464 0
v -112 -480 0
v -128 -480 0
v -128 -464 0
v -112 -464 0
v -96 -480 0
v -112 -480 0
v -112 -464 0
v -96 -464 0
v -80 -480 0
v -96 -480 0
v -96 -464 0
v -80 -464 0
v -224 -496 0
v -240 -496 0
v -240 -480 0
v -224 -480 0
v -208 -496 0
v -224 -496 0
v -224 -480 0
v -208 -480 0
v -192 -496 0
v -208 -496 0
v -208 -480 0
v -192 -480 0
v -176 -496 0
v -192 -496 0
v -192 -480 0
v -176 -480 0
v -160 -496 0
v -176 -496 0
v -176 -480 0
v -160 -480 0
v -144 -496 0
v -160 -496 0
v -160 -480 0
v -144 -480 0
v -128 -496 0
v -144 -496 0
v -144 -480 0
v -128 -480 0
v -112 -496 0
v -128 -496 0
v -128 -480 0
v -112 -480 0
v -96 -496 0
v -112 -496 0
v -112 -480 0
v -96 -480 0
v -464 -512 0
v -480 -512 0
v -480 -496 0
v -464 -496 0
v -448 -512 0
v -464 -512 0
v -464 -496 0
v -448 -496 0
v -224 -512 0
v -240 -512 0
v -240 -496 0
v -224 -496 0
v -208 -512 0
v -224 -512 0
v -224 -496 0
v -208 -496 0
v -192 -512 0
v -208 -512 0
v -208 -496 0
v -192 -496 0
v -176 -512 0
v -192 -512 0
v -192 -496 0
v -176 -496 0
v -160 -512 0
v -176 -512 0
v -176 -496 0
v -160 -496 0
v -144 -512 0
v -160 -512 0
v -160 -496 0
v -144 -496 0
v -128 -512 0
v -144 -512 0
v -144 -496 0
v -128 -496 0
v -112 -512 0
v -128 -512 0
v -128 -496 0
v -112 -496 0
v -96 -512 0
v -112 -512 0
v -112 -496 0
v -96 -496 0
v -480 -528 0
v -496 -528 0
v -496 -512 0
v -480 -512 0
v -464 -528 0
v -480 -528 0
v -480 -512 0
v -464 -512 0
v -448 -528 0
v -464 -528 0
v -464 -512 0
v -448 -512 0
v -208 -528 0
v -224 -528 0
v -224 -512 0
v -208 -512 0
v -192 -528 0
v -208 -528 0
v -208 -512 0
v -192 -512 0
v -176 -528 0
v -192 -528 0
v -192 -512 0
v -176 -512 0
v -160 -528 0
v -176 -528 0
v -176 -512 0
v -160 -512 0
v -144 -528 0
v -160 -528 0
v -160 -512 0
v -144 -512 0
v -128 -528 0
v -144 -528 0
v -144 -512 0
v -128 -512 0
v -112 -528 0
v -128 -528 0
v -128 -512 0
v -112 -512 0
v -96 -528 0
v -112 -528 0
v -112 -512 0
v -96 -512 0
v -480 -544 0
v -496 -544 0
v -496 -528 0
v -480 -528 0
v -464 -544 0
v -480 -544 0
v -480 -528 0
v -464 -528 0
v -448 -544 0
v -464 -544 0
v -464 -528 0
v -448 -528 0
v -224 -544 0
v -240 -544 0
v -240 -528 0
v -224 -528 0
v -208 -544 0
v -224 -544 0
v -224 -528 0
v -208 -528 0
v -192 -544 0
v -208 -544 0
v -208 -528 0
v -192 -528 0
v -176 -544 0
v -192 -544 0
v -192 -528 0
v -176 -528 0
v -160 -544 0
v -176 -544 0
v -176 -528 0
v -160 -528 0
v -144 -544 0
v -160 -544 0
v -160 -528 0
v -144 -528 0
v -128 -544 0
v -144 -544 0
v -144 -528 0
v -128 -528 0
v -112 -544 0
v -128 -544 0
v -128 -528 0
v -112 -528 0
v -480 -560 0
v -496 -560 0
v -496 -544 0
v -480 -544 0
v -464 -560 0
v -480 -560 0
v -480 -544 0
v -464 -544 0
v -224 -560 0
v -240 -560 0
v -240 -544 0
v -224 -544 0
v -208 -560 0
v -224 -560 0
v -224 -544 0
v -208 -544 0
v -192 -560 0
v -208 -560 0
v -208 -544 0
v -192 -544 0
v -176 -560 0
v -192 -560 0
v -192 -544 0
v -176 -544 0
v -160 -560 0
v -176 -560 0
v -176 -544 0
v -160 -544 0
v -144 -560 0
v -160 -560 0
v -160 -544 0
v -144 -544 0
v -128 -560 0
v -144 -560 0
v -144 -544 0
v -128 -544 0

# Texture cooridinates (Count = 56)
vt 0.2 0.9375
vt 0.2333333 0.9375
vt 0.2333333 0.9583333
vt 0.2 0.9583333
vt 0.06666667 0.9166667
vt 0.1 0.9166667
vt 0.1 0.9375
vt 0.06666667 0.9375
vt 0.3 0.9375
vt 0.3333333 0.9375
vt 0.3333333 0.9583333
vt 0.3 0.9583333
vt 0.3 0.9166667
vt 0.3333333 0.9166667
vt 0.2333333 0.9166667
vt 0.2666667 0.9166667
vt 0.2666667 0.9375
vt 0.2 0.9166667
vt 0.1333333 0.8958333
vt 0.1666667 0.8958333
vt 0.1666667 0.9166667
vt 0.1333333 0.9166667
vt 0.2 0.9791667
vt 0.2333333 0.9791667
vt 0.2333333 1
vt 0.2 1
vt 0.3 0.9791667
vt 0.3333333 0.9791667
vt 0.3333333 1
vt 0.3 1
vt 0.06666667 0.8958333
vt 0.1 0.8958333
vt 0.03333334 0.8958333
vt 0.03333334 0.9166667
vt 0.1333333 0.9583333
vt 0.1666667 0.9583333
vt 0.1666667 0.9791667
vt 0.1333333 0.9791667
vt 0.03333334 0.9583333
vt 0.06666667 0.9583333
vt 0.06666667 0.9791667
vt 0.03333334 0.9791667
vt 0.7 0.4583333
vt 0.7333333 0.4583333
vt 0.7333333 0.4791667
vt 0.7 0.4791667
vt 0.7 0.4166667
vt 0.7333333 0.4166667
vt 0.7333333 0.4375
vt 0.7 0.4375
vt 0.6666667 0.4166667
vt 0.6666667 0.4375
vt 0.7 0.3958333
vt 0.7333333 0.3958333
vt 0.7 0.375
vt 0.7333333 0.375

# Normal
vn 0 0 -1

# Mesh description
g ThesisRPGMap16x16_mesh_0004

# Faces
f 1/1/1 2/2/1 3/3/1 4/4/1
f 5/5/1 6/6/1 7/7/1 8/8/1
f 9/5/1 10/6/1 11/7/1 12/8/1
f 13/5/1 14/6/1 15/7/1 16/8/1
f 17/5/1 18/6/1 19/7/1 20/8/1
f 21/5/1 22/6/1 23/7/1 24/8/1
f 25/5/1 26/6/1 27/7/1 28/8/1
f 29/9/1 30/10/1 31/11/1 32/12/1
f 33/1/1 34/2/1 35/3/1 36/4/1
f 37/5/1 38/6/1 39/7/1 40/8/1
f 41/13/1 42/14/1 43/10/1 44/9/1
f 45/15/1 46/16/1 47/17/1 48/2/1
f 49/18/1 50/15/1 51/2/1 52/1/1
f 53/5/1 54/6/1 55/7/1 56/8/1
f 57/5/1 58/6/1 59/7/1 60/8/1
f 61/5/1 62/6/1 63/7/1 64/8/1
f 65/9/1 66/10/1 67/11/1 68/12/1
f 69/19/1 70/20/1 71/21/1 72/22/1
f 73/23/1 74/24/1 75/25/1 76/26/1
f 77/5/1 78/6/1 79/7/1 80/8/1
f 81/5/1 82/6/1 83/7/1 84/8/1
f 85/27/1 86/28/1 87/29/1 88/30/1
f 89/31/1 90/32/1 91/6/1 92/5/1
f 93/31/1 94/32/1 95/6/1 96/5/1
f 97/33/1 98/31/1 99/5/1 100/34/1
f 101/19/1 102/20/1 103/21/1 104/22/1
f 105/23/1 106/24/1 107/25/1 108/26/1
f 109/27/1 110/28/1 111/29/1 112/30/1
f 113/31/1 114/32/1 115/6/1 116/5/1
f 117/23/1 118/24/1 119/25/1 120/26/1
f 121/5/1 122/6/1 123/7/1 124/8/1
f 125/5/1 126/6/1 127/7/1 128/8/1
f 129/27/1 130/28/1 131/29/1 132/30/1
f 133/33/1 134/31/1 135/5/1 136/34/1
f 137/1/1 138/2/1 139/3/1 140/4/1
f 141/5/1 142/6/1 143/7/1 144/8/1
f 145/27/1 146/28/1 147/29/1 148/30/1
f 149/33/1 150/31/1 151/5/1 152/34/1
f 153/1/1 154/2/1 155/3/1 156/4/1
f 157/13/1 158/14/1 159/10/1 160/9/1
f 161/15/1 162/16/1 163/17/1 164/2/1
f 165/18/1 166/15/1 167/2/1 168/1/1
f 169/5/1 170/6/1 171/7/1 172/8/1
f 173/27/1 174/28/1 175/29/1 176/30/1
f 177/33/1 178/31/1 179/5/1 180/34/1
f 181/19/1 182/20/1 183/21/1 184/22/1
f 185/31/1 186/32/1 187/6/1 188/5/1
f 189/33/1 190/31/1 191/5/1 192/34/1
f 193/19/1 194/20/1 195/21/1 196/22/1
f 197/23/1 198/24/1 199/25/1 200/26/1
f 201/5/1 202/6/1 203/7/1 204/8/1
f 205/5/1 206/6/1 207/7/1 208/8/1
f 209/5/1 210/6/1 211/7/1 212/8/1
f 213/9/1 214/10/1 215/11/1 216/12/1
f 217/1/1 218/2/1 219/3/1 220/4/1
f 221/5/1 222/6/1 223/7/1 224/8/1
f 225/5/1 226/6/1 227/7/1 228/8/1
f 229/27/1 230/28/1 231/29/1 232/30/1
f 233/33/1 234/31/1 235/5/1 236/34/1
f 237/1/1 238/2/1 239/3/1 240/4/1
f 241/5/1 242/6/1 243/7/1 244/8/1
f 245/5/1 246/6/1 247/7/1 248/8/1
f 249/9/1 250/10/1 251/11/1 252/12/1
f 253/35/1 254/36/1 255/37/1 256/38/1
f 257/18/1 258/15/1 259/2/1 260/1/1
f 261/5/1 262/6/1 263/7/1 264/8/1
f 265/5/1 266/6/1 267/7/1 268/8/1
f 269/9/1 270/10/1 271/11/1 272/12/1
f 273/35/1 274/36/1 275/37/1 276/38/1
f 277/39/1 278/40/1 279/41/1 280/42/1
f 281/1/1 282/2/1 283/3/1 284/4/1
f 285/5/1 286/6/1 287/7/1 288/8/1
f 289/5/1 290/6/1 291/7/1 292/8/1
f 293/27/1 294/28/1 295/29/1 296/30/1
f 297/33/1 298/31/1 299/5/1 300/34/1
f 301/35/1 302/36/1 303/37/1 304/38/1
f 305/18/1 306/15/1 307/2/1 308/1/1
f 309/9/1 310/10/1 311/11/1 312/12/1
f 313/43/1 314/44/1 315/45/1 316/46/1
f 317/1/1 318/2/1 319/3/1 320/4/1
f 321/5/1 322/6/1 323/7/1 324/8/1
f 325/5/1 326/6/1 327/7/1 328/8/1
f 329/9/1 330/10/1 331/11/1 332/12/1
f 333/1/1 334/2/1 335/3/1 336/4/1
f 337/27/1 338/28/1 339/29/1 340/30/1
f 341/33/1 342/31/1 343/5/1 344/34/1
f 345/47/1 346/48/1 347/49/1 348/50/1
f 349/51/1 350/47/1 351/50/1 352/52/1
f 353/1/1 354/2/1 355/3/1 356/4/1
f 357/5/1 358/6/1 359/7/1 360/8/1
f 361/5/1 362/6/1 363/7/1 364/8/1
f 365/13/1 366/14/1 367/10/1 368/9/1
f 369/39/1 370/40/1 371/41/1 372/42/1
f 373/19/1 374/20/1 375/21/1 376/22/1
f 377/33/1 378/31/1 379/5/1 380/34/1
f 381/53/1 382/54/1 383/48/1 384/47/1
f 385/1/1 386/2/1 387/3/1 388/4/1
f 389/5/1 390/6/1 391/7/1 392/8/1
f 393/5/1 394/6/1 395/7/1 396/8/1
f 397/5/1 398/6/1 399/7/1 400/8/1
f 401/9/1 402/10/1 403/11/1 404/12/1
f 405/55/1 406/56/1 407/54/1 408/53/1
f 409/1/1 410/2/1 411/3/1 412/4/1
f 413/5/1 414/6/1 415/7/1 416/8/1
f 417/27/1 418/28/1 419/29/1 420/30/1
f 421/31/1 422/32/1 423/6/1 424/5/1
f 425/33/1 426/31/1 427/5/1 428/34/1
f 429/35/1 430/36/1 431/37/1 432/38/1
f 433/18/1 434/15/1 435/2/1 436/1/1
f 437/5/1 438/6/1 439/7/1 440/8/1
f 441/9/1 442/10/1 443/11/1 444/12/1
f 445/19/1 446/20/1 447/21/1 448/22/1
f 449/31/1 450/32/1 451/6/1 452/5/1
f 453/31/1 454/32/1 455/6/1 456/5/1
f 457/33/1 458/31/1 459/5/1 460/34/1
f 461/35/1 462/36/1 463/37/1 464/38/1
f 465/15/1 466/16/1 467/17/1 468/2/1
f 469/15/1 470/16/1 471/17/1 472/2/1
f 473/39/1 474/40/1 475/41/1 476/42/1
f 477/35/1 478/36/1 479/37/1 480/38/1
f 481/15/1 482/16/1 483/17/1 484/2/1
f 485/39/1 486/40/1 487/41/1 488/42/1
f 489/35/1 490/36/1 491/37/1 492/38/1
f 493/15/1 494/16/1 495/17/1 496/2/1
f 497/18/1 498/15/1 499/2/1 500/1/1
f 501/27/1 502/28/1 503/29/1 504/30/1
f 505/31/1 506/32/1 507/6/1 508/5/1
f 509/33/1 510/31/1 511/5/1 512/34/1
f 513/35/1 514/36/1 515/37/1 516/38/1
f 517/15/1 518/16/1 519/17/1 520/2/1
f 521/15/1 522/16/1 523/17/1 524/2/1
f 525/18/1 526/15/1 527/2/1 528/1/1
f 529/5/1 530/6/1 531/7/1 532/8/1
f 533/9/1 534/10/1 535/11/1 536/12/1
f 537/19/1 538/20/1 539/21/1 540/22/1
f 541/31/1 542/32/1 543/6/1 544/5/1
f 545/31/1 546/32/1 547/6/1 548/5/1
f 549/33/1 550/31/1 551/5/1 552/34/1
f 553/19/1 554/20/1 555/21/1 556/22/1
f 557/23/1 558/24/1 559/25/1 560/26/1
f 561/5/1 562/6/1 563/7/1 564/8/1
f 565/27/1 566/28/1 567/29/1 568/30/1
f 569/31/1 570/32/1 571/6/1 572/5/1
f 573/33/1 574/31/1 575/5/1 576/34/1
f 577/19/1 578/20/1 579/21/1 580/22/1
f 581/31/1 582/32/1 583/6/1 584/5/1
f 585/33/1 586/31/1 587/5/1 588/34/1
f 589/35/1 590/36/1 591/37/1 592/38/1
f 593/15/1 594/16/1 595/17/1 596/2/1
f 597/15/1 598/16/1 599/17/1 600/2/1
f 601/39/1 602/40/1 603/41/1 604/42/1
f 605/19/1 606/20/1 607/21/1 608/22/1
f 609/23/1 610/24/1 611/25/1 612/26/1
f 613/5/1 614/6/1 615/7/1 616/8/1
f 617/13/1 618/14/1 619/10/1 620/9/1
f 621/39/1 622/40/1 623/41/1 624/42/1
f 625/35/1 626/36/1 627/37/1 628/38/1
f 629/15/1 630/16/1 631/17/1 632/2/1
f 633/18/1 634/15/1 635/2/1 636/1/1
f 637/5/1 638/6/1 639/7/1 640/8/1
f 641/5/1 642/6/1 643/7/1 644/8/1
f 645/9/1 646/10/1 647/11/1 648/12/1
f 649/1/1 650/2/1 651/3/1 652/4/1
f 653/5/1 654/6/1 655/7/1 656/8/1
f 657/5/1 658/6/1 659/7/1 660/8/1
f 661/5/1 662/6/1 663/7/1 664/8/1
f 665/27/1 666/28/1 667/29/1 668/30/1
f 669/33/1 670/31/1 671/5/1 672/34/1
f 673/19/1 674/20/1 675/21/1 676/22/1
f 677/31/1 678/32/1 679/6/1 680/5/1
f 681/31/1 682/32/1 683/6/1 684/5/1
f 685/31/1 686/32/1 687/6/1 688/5/1
f 689/33/1 690/31/1 691/5/1 692/34/1
f 693/35/1 694/36/1 695/37/1 696/38/1
f 697/15/1 698/16/1 699/17/1 700/2/1
f 701/15/1 702/16/1 703/17/1 704/2/1
f 705/39/1 706/40/1 707/41/1 708/42/1
f 709/35/1 710/36/1 711/37/1 712/38/1
f 713/15/1 714/16/1 715/17/1 716/2/1
f 717/39/1 718/40/1 719/41/1 720/42/1
f 721/35/1 722/36/1 723/37/1 724/38/1
f 725/18/1 726/15/1 727/2/1 728/1/1
f 729/5/1 730/6/1 731/7/1 732/8/1
f 733/27/1 734/28/1 735/29/1 736/30/1
f 737/33/1 738/31/1 739/5/1 740/34/1
f 741/1/1 742/2/1 743/3/1 744/4/1
f 745/5/1 746/6/1 747/7/1 748/8/1
f 749/13/1 750/14/1 751/10/1 752/9/1
f 753/15/1 754/16/1 755/17/1 756/2/1
f 757/15/1 758/16/1 759/17/1 760/2/1
f 761/18/1 762/15/1 763/2/1 764/1/1
f 765/5/1 766/6/1 767/7/1 768/8/1
f 769/5/1 770/6/1 771/7/1 772/8/1
f 773/9/1 774/10/1 775/11/1 776/12/1
f 777/35/1 778/36/1 779/37/1 780/38/1
f 781/39/1 782/40/1 783/41/1 784/42/1
f 785/19/1 786/20/1 787/21/1 788/22/1
f 789/23/1 790/24/1 791/25/1 792/26/1
f 793/5/1 794/6/1 795/7/1 796/8/1
f 797/5/1 798/6/1 799/7/1 800/8/1
f 801/5/1 802/6/1 803/7/1 804/8/1
f 805/5/1 806/6/1 807/7/1 808/8/1
f 809/5/1 810/6/1 811/7/1 812/8/1
f 813/5/1 814/6/1 815/7/1 816/8/1
f 817/9/1 818/10/1 819/11/1 820/12/1
f 821/35/1 822/36/1 823/37/1 824/38/1
f 825/18/1 826/15/1 827/2/1 828/1/1
f 829/9/1 830/10/1 831/11/1 832/12/1
f 833/1/1 834/2/1 835/3/1 836/4/1
f 837/5/1 838/6/1 839/7/1 840/8/1
f 841/5/1 842/6/1 843/7/1 844/8/1
f 845/5/1 846/6/1 847/7/1 848/8/1
f 849/5/1 850/6/1 851/7/1 852/8/1
f 853/5/1 854/6/1 855/7/1 856/8/1
f 857/27/1 858/28/1 859/29/1 860/30/1
f 861/33/1 862/31/1 863/5/1 864/34/1
f 865/1/1 866/2/1 867/3/1 868/4/1
f 869/27/1 870/28/1 871/29/1 872/30/1
f 873/33/1 874/31/1 875/5/1 876/34/1
f 877/35/1 878/36/1 879/37/1 880/38/1
f 881/18/1 882/15/1 883/2/1 884/1/1
f 885/5/1 886/6/1 887/7/1 888/8/1
f 889/5/1 890/6/1 891/7/1 892/8/1
f 893/5/1 894/6/1 895/7/1 896/8/1
f 897/5/1 898/6/1 899/7/1 900/8/1
f 901/27/1 902/28/1 903/29/1 904/30/1
f 905/33/1 906/31/1 907/5/1 908/34/1
f 909/19/1 910/20/1 911/21/1 912/22/1
f 913/33/1 914/31/1 915/5/1 916/34/1
f 917/19/1 918/20/1 919/21/1 920/22/1
f 921/31/1 922/32/1 923/6/1 924/5/1
f 925/23/1 926/24/1 927/25/1 928/26/1
f 929/5/1 930/6/1 931/7/1 932/8/1
f 933/5/1 934/6/1 935/7/1 936/8/1
f 937/27/1 938/28/1 939/29/1 940/30/1
f 941/33/1 942/31/1 943/5/1 944/34/1

