# Tiled2Unity generated file. Do not modify by hand.
# Wavefront file for 'ThesisRPGMap16x16_mesh_0005.obj'

# Vertices (Count = 196)
v -480 -112 0
v -496 -112 0
v -496 -96 0
v -480 -96 0
v -464 -112 0
v -480 -112 0
v -480 -96 0
v -464 -96 0
v -448 -112 0
v -464 -112 0
v -464 -96 0
v -448 -96 0
v -432 -112 0
v -448 -112 0
v -448 -96 0
v -432 -96 0
v -416 -112 0
v -432 -112 0
v -432 -96 0
v -416 -96 0
v -400 -112 0
v -416 -112 0
v -416 -96 0
v -400 -96 0
v -384 -112 0
v -400 -112 0
v -400 -96 0
v -384 -96 0
v -480 -128 0
v -496 -128 0
v -496 -112 0
v -480 -112 0
v -464 -128 0
v -480 -128 0
v -480 -112 0
v -464 -112 0
v -448 -128 0
v -464 -128 0
v -464 -112 0
v -448 -112 0
v -432 -128 0
v -448 -128 0
v -448 -112 0
v -432 -112 0
v -416 -128 0
v -432 -128 0
v -432 -112 0
v -416 -112 0
v -400 -128 0
v -416 -128 0
v -416 -112 0
v -400 -112 0
v -384 -128 0
v -400 -128 0
v -400 -112 0
v -384 -112 0
v -480 -144 0
v -496 -144 0
v -496 -128 0
v -480 -128 0
v -464 -144 0
v -480 -144 0
v -480 -128 0
v -464 -128 0
v -448 -144 0
v -464 -144 0
v -464 -128 0
v -448 -128 0
v -432 -144 0
v -448 -144 0
v -448 -128 0
v -432 -128 0
v -416 -144 0
v -432 -144 0
v -432 -128 0
v -416 -128 0
v -400 -144 0
v -416 -144 0
v -416 -128 0
v -400 -128 0
v -384 -144 0
v -400 -144 0
v -400 -128 0
v -384 -128 0
v -480 -160 0
v -496 -160 0
v -496 -144 0
v -480 -144 0
v -464 -160 0
v -480 -160 0
v -480 -144 0
v -464 -144 0
v -448 -160 0
v -464 -160 0
v -464 -144 0
v -448 -144 0
v -432 -160 0
v -448 -160 0
v -448 -144 0
v -432 -144 0
v -416 -160 0
v -432 -160 0
v -432 -144 0
v -416 -144 0
v -400 -160 0
v -416 -160 0
v -416 -144 0
v -400 -144 0
v -384 -160 0
v -400 -160 0
v -400 -144 0
v -384 -144 0
v -480 -176 0
v -496 -176 0
v -496 -160 0
v -480 -160 0
v -464 -176 0
v -480 -176 0
v -480 -160 0
v -464 -160 0
v -448 -176 0
v -464 -176 0
v -464 -160 0
v -448 -160 0
v -432 -176 0
v -448 -176 0
v -448 -160 0
v -432 -160 0
v -416 -176 0
v -432 -176 0
v -432 -160 0
v -416 -160 0
v -400 -176 0
v -416 -176 0
v -416 -160 0
v -400 -160 0
v -384 -176 0
v -400 -176 0
v -400 -160 0
v -384 -160 0
v -480 -192 0
v -496 -192 0
v -496 -176 0
v -480 -176 0
v -464 -192 0
v -480 -192 0
v -480 -176 0
v -464 -176 0
v -448 -192 0
v -464 -192 0
v -464 -176 0
v -448 -176 0
v -432 -192 0
v -448 -192 0
v -448 -176 0
v -432 -176 0
v -416 -192 0
v -432 -192 0
v -432 -176 0
v -416 -176 0
v -400 -192 0
v -416 -192 0
v -416 -176 0
v -400 -176 0
v -384 -192 0
v -400 -192 0
v -400 -176 0
v -384 -176 0
v -480 -208 0
v -496 -208 0
v -496 -192 0
v -480 -192 0
v -464 -208 0
v -480 -208 0
v -480 -192 0
v -464 -192 0
v -448 -208 0
v -464 -208 0
v -464 -192 0
v -448 -192 0
v -432 -208 0
v -448 -208 0
v -448 -192 0
v -432 -192 0
v -416 -208 0
v -432 -208 0
v -432 -192 0
v -416 -192 0
v -400 -208 0
v -416 -208 0
v -416 -192 0
v -400 -192 0
v -384 -208 0
v -400 -208 0
v -400 -192 0
v -384 -192 0

# Texture cooridinates (Count = 34)
vt 0.1333333 0.7083334
vt 0.1666667 0.7083334
vt 0.1666667 0.7291666
vt 0.1333333 0.7291666
vt 0.1 0.7083334
vt 0.1 0.7291666
vt 0.03333334 0.7083334
vt 0.06666667 0.7083334
vt 0.06666667 0.7291666
vt 0.03333334 0.7291666
vt 0.1333333 0.6666666
vt 0.1666667 0.6666666
vt 0.1666667 0.6875
vt 0.1333333 0.6875
vt 0.06666667 0.6666666
vt 0.1 0.6666666
vt 0.1 0.6875
vt 0.06666667 0.6875
vt 0.7666667 0.6875
vt 0.8 0.6875
vt 0.8 0.7083334
vt 0.7666667 0.7083334
vt 0.7333333 0.6875
vt 0.7333333 0.7083334
vt 0.03333334 0.6666666
vt 0.03333334 0.6875
vt 0.7666667 0.6666666
vt 0.8 0.6666666
vt 0.7333333 0.6666666
vt 0.1333333 0.6458334
vt 0.1666667 0.6458334
vt 0.1 0.6458334
vt 0.03333334 0.6458334
vt 0.06666667 0.6458334

# Normal
vn 0 0 -1

# Mesh description
g ThesisRPGMap16x16_mesh_0005

# Faces
f 1/1/1 2/2/1 3/3/1 4/4/1
f 5/5/1 6/1/1 7/4/1 8/6/1
f 9/5/1 10/1/1 11/4/1 12/6/1
f 13/5/1 14/1/1 15/4/1 16/6/1
f 17/5/1 18/1/1 19/4/1 20/6/1
f 21/5/1 22/1/1 23/4/1 24/6/1
f 25/7/1 26/8/1 27/9/1 28/10/1
f 29/11/1 30/12/1 31/13/1 32/14/1
f 33/15/1 34/16/1 35/17/1 36/18/1
f 37/15/1 38/16/1 39/17/1 40/18/1
f 41/19/1 42/20/1 43/21/1 44/22/1
f 45/19/1 46/20/1 47/21/1 48/22/1
f 49/23/1 50/19/1 51/22/1 52/24/1
f 53/25/1 54/15/1 55/18/1 56/26/1
f 57/11/1 58/12/1 59/13/1 60/14/1
f 61/15/1 62/16/1 63/17/1 64/18/1
f 65/15/1 66/16/1 67/17/1 68/18/1
f 69/27/1 70/28/1 71/20/1 72/19/1
f 73/27/1 74/28/1 75/20/1 76/19/1
f 77/29/1 78/27/1 79/19/1 80/23/1
f 81/25/1 82/15/1 83/18/1 84/26/1
f 85/11/1 86/12/1 87/13/1 88/14/1
f 89/19/1 90/20/1 91/21/1 92/22/1
f 93/23/1 94/19/1 95/22/1 96/24/1
f 97/23/1 98/19/1 99/22/1 100/24/1
f 101/19/1 102/20/1 103/21/1 104/22/1
f 105/23/1 106/19/1 107/22/1 108/24/1
f 109/25/1 110/15/1 111/18/1 112/26/1
f 113/11/1 114/12/1 115/13/1 116/14/1
f 117/19/1 118/20/1 119/21/1 120/22/1
f 121/23/1 122/19/1 123/22/1 124/24/1
f 125/29/1 126/27/1 127/19/1 128/23/1
f 129/27/1 130/28/1 131/20/1 132/19/1
f 133/29/1 134/27/1 135/19/1 136/23/1
f 137/25/1 138/15/1 139/18/1 140/26/1
f 141/11/1 142/12/1 143/13/1 144/14/1
f 145/27/1 146/28/1 147/20/1 148/19/1
f 149/29/1 150/27/1 151/19/1 152/23/1
f 153/15/1 154/16/1 155/17/1 156/18/1
f 157/15/1 158/16/1 159/17/1 160/18/1
f 161/15/1 162/16/1 163/17/1 164/18/1
f 165/25/1 166/15/1 167/18/1 168/26/1
f 169/30/1 170/31/1 171/12/1 172/11/1
f 173/32/1 174/30/1 175/11/1 176/16/1
f 177/32/1 178/30/1 179/11/1 180/16/1
f 181/32/1 182/30/1 183/11/1 184/16/1
f 185/32/1 186/30/1 187/11/1 188/16/1
f 189/32/1 190/30/1 191/11/1 192/16/1
f 193/33/1 194/34/1 195/15/1 196/25/1

