# Tiled2Unity generated file. Do not modify by hand.
# Wavefront file for 'forest2-(2)_mesh_0002.obj'

# Vertices (Count = 720)
v 0 -1 0
v -1 -1 0
v -1 0 0
v 0 0 0
v -1 -1 0
v -2 -1 0
v -2 0 0
v -1 0 0
v -2 -1 0
v -3 -1 0
v -3 0 0
v -2 0 0
v -3 -1 0
v -4 -1 0
v -4 0 0
v -3 0 0
v -4 -1 0
v -5 -1 0
v -5 0 0
v -4 0 0
v -5 -1 0
v -6 -1 0
v -6 0 0
v -5 0 0
v -6 -1 0
v -7 -1 0
v -7 0 0
v -6 0 0
v -7 -1 0
v -8 -1 0
v -8 0 0
v -7 0 0
v -8 -1 0
v -9 -1 0
v -9 0 0
v -8 0 0
v -9 -1 0
v -10 -1 0
v -10 0 0
v -9 0 0
v -10 -1 0
v -11 -1 0
v -11 0 0
v -10 0 0
v -11 -1 0
v -12 -1 0
v -12 0 0
v -11 0 0
v -12 -1 0
v -13 -1 0
v -13 0 0
v -12 0 0
v -13 -1 0
v -14 -1 0
v -14 0 0
v -13 0 0
v -14 -1 0
v -15 -1 0
v -15 0 0
v -14 0 0
v -15 -1 0
v -16 -1 0
v -16 0 0
v -15 0 0
v -16 -1 0
v -17 -1 0
v -17 0 0
v -16 0 0
v -17 -1 0
v -18 -1 0
v -18 0 0
v -17 0 0
v -18 -1 0
v -19 -1 0
v -19 0 0
v -18 0 0
v -19 -1 0
v -20 -1 0
v -20 0 0
v -19 0 0
v -20 -1 0
v -21 -1 0
v -21 0 0
v -20 0 0
v -21 -1 0
v -22 -1 0
v -22 0 0
v -21 0 0
v -22 -1 0
v -23 -1 0
v -23 0 0
v -22 0 0
v -23 -1 0
v -24 -1 0
v -24 0 0
v -23 0 0
v -24 -1 0
v -25 -1 0
v -25 0 0
v -24 0 0
v -25 -1 0
v -26 -1 0
v -26 0 0
v -25 0 0
v -26 -1 0
v -27 -1 0
v -27 0 0
v -26 0 0
v -27 -1 0
v -28 -1 0
v -28 0 0
v -27 0 0
v -28 -1 0
v -29 -1 0
v -29 0 0
v -28 0 0
v -29 -1 0
v -30 -1 0
v -30 0 0
v -29 0 0
v 0 -2 0
v -1 -2 0
v -1 -1 0
v 0 -1 0
v -1 -2 0
v -2 -2 0
v -2 -1 0
v -1 -1 0
v -2 -2 0
v -3 -2 0
v -3 -1 0
v -2 -1 0
v -3 -2 0
v -4 -2 0
v -4 -1 0
v -3 -1 0
v -4 -2 0
v -5 -2 0
v -5 -1 0
v -4 -1 0
v -5 -2 0
v -6 -2 0
v -6 -1 0
v -5 -1 0
v -6 -2 0
v -7 -2 0
v -7 -1 0
v -6 -1 0
v -7 -2 0
v -8 -2 0
v -8 -1 0
v -7 -1 0
v -8 -2 0
v -9 -2 0
v -9 -1 0
v -8 -1 0
v -9 -2 0
v -10 -2 0
v -10 -1 0
v -9 -1 0
v -10 -2 0
v -11 -2 0
v -11 -1 0
v -10 -1 0
v -11 -2 0
v -12 -2 0
v -12 -1 0
v -11 -1 0
v -12 -2 0
v -13 -2 0
v -13 -1 0
v -12 -1 0
v -13 -2 0
v -14 -2 0
v -14 -1 0
v -13 -1 0
v -14 -2 0
v -15 -2 0
v -15 -1 0
v -14 -1 0
v -15 -2 0
v -16 -2 0
v -16 -1 0
v -15 -1 0
v -16 -2 0
v -17 -2 0
v -17 -1 0
v -16 -1 0
v -17 -2 0
v -18 -2 0
v -18 -1 0
v -17 -1 0
v -18 -2 0
v -19 -2 0
v -19 -1 0
v -18 -1 0
v -19 -2 0
v -20 -2 0
v -20 -1 0
v -19 -1 0
v -20 -2 0
v -21 -2 0
v -21 -1 0
v -20 -1 0
v -21 -2 0
v -22 -2 0
v -22 -1 0
v -21 -1 0
v -22 -2 0
v -23 -2 0
v -23 -1 0
v -22 -1 0
v -23 -2 0
v -24 -2 0
v -24 -1 0
v -23 -1 0
v -24 -2 0
v -25 -2 0
v -25 -1 0
v -24 -1 0
v -25 -2 0
v -26 -2 0
v -26 -1 0
v -25 -1 0
v -26 -2 0
v -27 -2 0
v -27 -1 0
v -26 -1 0
v -27 -2 0
v -28 -2 0
v -28 -1 0
v -27 -1 0
v -28 -2 0
v -29 -2 0
v -29 -1 0
v -28 -1 0
v -29 -2 0
v -30 -2 0
v -30 -1 0
v -29 -1 0
v 0 -3 0
v -1 -3 0
v -1 -2 0
v 0 -2 0
v -1 -3 0
v -2 -3 0
v -2 -2 0
v -1 -2 0
v -2 -3 0
v -3 -3 0
v -3 -2 0
v -2 -2 0
v -3 -3 0
v -4 -3 0
v -4 -2 0
v -3 -2 0
v -4 -3 0
v -5 -3 0
v -5 -2 0
v -4 -2 0
v -5 -3 0
v -6 -3 0
v -6 -2 0
v -5 -2 0
v -6 -3 0
v -7 -3 0
v -7 -2 0
v -6 -2 0
v -7 -3 0
v -8 -3 0
v -8 -2 0
v -7 -2 0
v -8 -3 0
v -9 -3 0
v -9 -2 0
v -8 -2 0
v -9 -3 0
v -10 -3 0
v -10 -2 0
v -9 -2 0
v -10 -3 0
v -11 -3 0
v -11 -2 0
v -10 -2 0
v -11 -3 0
v -12 -3 0
v -12 -2 0
v -11 -2 0
v -12 -3 0
v -13 -3 0
v -13 -2 0
v -12 -2 0
v -13 -3 0
v -14 -3 0
v -14 -2 0
v -13 -2 0
v -14 -3 0
v -15 -3 0
v -15 -2 0
v -14 -2 0
v -15 -3 0
v -16 -3 0
v -16 -2 0
v -15 -2 0
v -16 -3 0
v -17 -3 0
v -17 -2 0
v -16 -2 0
v -17 -3 0
v -18 -3 0
v -18 -2 0
v -17 -2 0
v -18 -3 0
v -19 -3 0
v -19 -2 0
v -18 -2 0
v -19 -3 0
v -20 -3 0
v -20 -2 0
v -19 -2 0
v -20 -3 0
v -21 -3 0
v -21 -2 0
v -20 -2 0
v -21 -3 0
v -22 -3 0
v -22 -2 0
v -21 -2 0
v -22 -3 0
v -23 -3 0
v -23 -2 0
v -22 -2 0
v -23 -3 0
v -24 -3 0
v -24 -2 0
v -23 -2 0
v -24 -3 0
v -25 -3 0
v -25 -2 0
v -24 -2 0
v -25 -3 0
v -26 -3 0
v -26 -2 0
v -25 -2 0
v -26 -3 0
v -27 -3 0
v -27 -2 0
v -26 -2 0
v -27 -3 0
v -28 -3 0
v -28 -2 0
v -27 -2 0
v -28 -3 0
v -29 -3 0
v -29 -2 0
v -28 -2 0
v -29 -3 0
v -30 -3 0
v -30 -2 0
v -29 -2 0
v 0 -4 0
v -1 -4 0
v -1 -3 0
v 0 -3 0
v -1 -4 0
v -2 -4 0
v -2 -3 0
v -1 -3 0
v -2 -4 0
v -3 -4 0
v -3 -3 0
v -2 -3 0
v -3 -4 0
v -4 -4 0
v -4 -3 0
v -3 -3 0
v -4 -4 0
v -5 -4 0
v -5 -3 0
v -4 -3 0
v -5 -4 0
v -6 -4 0
v -6 -3 0
v -5 -3 0
v -6 -4 0
v -7 -4 0
v -7 -3 0
v -6 -3 0
v -7 -4 0
v -8 -4 0
v -8 -3 0
v -7 -3 0
v -8 -4 0
v -9 -4 0
v -9 -3 0
v -8 -3 0
v -9 -4 0
v -10 -4 0
v -10 -3 0
v -9 -3 0
v -10 -4 0
v -11 -4 0
v -11 -3 0
v -10 -3 0
v -11 -4 0
v -12 -4 0
v -12 -3 0
v -11 -3 0
v -12 -4 0
v -13 -4 0
v -13 -3 0
v -12 -3 0
v -13 -4 0
v -14 -4 0
v -14 -3 0
v -13 -3 0
v -14 -4 0
v -15 -4 0
v -15 -3 0
v -14 -3 0
v -15 -4 0
v -16 -4 0
v -16 -3 0
v -15 -3 0
v -16 -4 0
v -17 -4 0
v -17 -3 0
v -16 -3 0
v -17 -4 0
v -18 -4 0
v -18 -3 0
v -17 -3 0
v -18 -4 0
v -19 -4 0
v -19 -3 0
v -18 -3 0
v -19 -4 0
v -20 -4 0
v -20 -3 0
v -19 -3 0
v -20 -4 0
v -21 -4 0
v -21 -3 0
v -20 -3 0
v -21 -4 0
v -22 -4 0
v -22 -3 0
v -21 -3 0
v -22 -4 0
v -23 -4 0
v -23 -3 0
v -22 -3 0
v -23 -4 0
v -24 -4 0
v -24 -3 0
v -23 -3 0
v -24 -4 0
v -25 -4 0
v -25 -3 0
v -24 -3 0
v -25 -4 0
v -26 -4 0
v -26 -3 0
v -25 -3 0
v -26 -4 0
v -27 -4 0
v -27 -3 0
v -26 -3 0
v -27 -4 0
v -28 -4 0
v -28 -3 0
v -27 -3 0
v -28 -4 0
v -29 -4 0
v -29 -3 0
v -28 -3 0
v -29 -4 0
v -30 -4 0
v -30 -3 0
v -29 -3 0
v 0 -5 0
v -1 -5 0
v -1 -4 0
v 0 -4 0
v -1 -5 0
v -2 -5 0
v -2 -4 0
v -1 -4 0
v -2 -5 0
v -3 -5 0
v -3 -4 0
v -2 -4 0
v -3 -5 0
v -4 -5 0
v -4 -4 0
v -3 -4 0
v -4 -5 0
v -5 -5 0
v -5 -4 0
v -4 -4 0
v -5 -5 0
v -6 -5 0
v -6 -4 0
v -5 -4 0
v -6 -5 0
v -7 -5 0
v -7 -4 0
v -6 -4 0
v -7 -5 0
v -8 -5 0
v -8 -4 0
v -7 -4 0
v -8 -5 0
v -9 -5 0
v -9 -4 0
v -8 -4 0
v -9 -5 0
v -10 -5 0
v -10 -4 0
v -9 -4 0
v -10 -5 0
v -11 -5 0
v -11 -4 0
v -10 -4 0
v -11 -5 0
v -12 -5 0
v -12 -4 0
v -11 -4 0
v -12 -5 0
v -13 -5 0
v -13 -4 0
v -12 -4 0
v -13 -5 0
v -14 -5 0
v -14 -4 0
v -13 -4 0
v -14 -5 0
v -15 -5 0
v -15 -4 0
v -14 -4 0
v -15 -5 0
v -16 -5 0
v -16 -4 0
v -15 -4 0
v -16 -5 0
v -17 -5 0
v -17 -4 0
v -16 -4 0
v -17 -5 0
v -18 -5 0
v -18 -4 0
v -17 -4 0
v -18 -5 0
v -19 -5 0
v -19 -4 0
v -18 -4 0
v -19 -5 0
v -20 -5 0
v -20 -4 0
v -19 -4 0
v -20 -5 0
v -21 -5 0
v -21 -4 0
v -20 -4 0
v -21 -5 0
v -22 -5 0
v -22 -4 0
v -21 -4 0
v -22 -5 0
v -23 -5 0
v -23 -4 0
v -22 -4 0
v -23 -5 0
v -24 -5 0
v -24 -4 0
v -23 -4 0
v -24 -5 0
v -25 -5 0
v -25 -4 0
v -24 -4 0
v -25 -5 0
v -26 -5 0
v -26 -4 0
v -25 -4 0
v -26 -5 0
v -27 -5 0
v -27 -4 0
v -26 -4 0
v -27 -5 0
v -28 -5 0
v -28 -4 0
v -27 -4 0
v -28 -5 0
v -29 -5 0
v -29 -4 0
v -28 -4 0
v -29 -5 0
v -30 -5 0
v -30 -4 0
v -29 -4 0
v 0 -6 0
v -1 -6 0
v -1 -5 0
v 0 -5 0
v -1 -6 0
v -2 -6 0
v -2 -5 0
v -1 -5 0
v -2 -6 0
v -3 -6 0
v -3 -5 0
v -2 -5 0
v -3 -6 0
v -4 -6 0
v -4 -5 0
v -3 -5 0
v -4 -6 0
v -5 -6 0
v -5 -5 0
v -4 -5 0
v -5 -6 0
v -6 -6 0
v -6 -5 0
v -5 -5 0
v -6 -6 0
v -7 -6 0
v -7 -5 0
v -6 -5 0
v -7 -6 0
v -8 -6 0
v -8 -5 0
v -7 -5 0
v -8 -6 0
v -9 -6 0
v -9 -5 0
v -8 -5 0
v -9 -6 0
v -10 -6 0
v -10 -5 0
v -9 -5 0
v -10 -6 0
v -11 -6 0
v -11 -5 0
v -10 -5 0
v -11 -6 0
v -12 -6 0
v -12 -5 0
v -11 -5 0
v -12 -6 0
v -13 -6 0
v -13 -5 0
v -12 -5 0
v -13 -6 0
v -14 -6 0
v -14 -5 0
v -13 -5 0
v -14 -6 0
v -15 -6 0
v -15 -5 0
v -14 -5 0
v -15 -6 0
v -16 -6 0
v -16 -5 0
v -15 -5 0
v -16 -6 0
v -17 -6 0
v -17 -5 0
v -16 -5 0
v -17 -6 0
v -18 -6 0
v -18 -5 0
v -17 -5 0
v -18 -6 0
v -19 -6 0
v -19 -5 0
v -18 -5 0
v -19 -6 0
v -20 -6 0
v -20 -5 0
v -19 -5 0
v -20 -6 0
v -21 -6 0
v -21 -5 0
v -20 -5 0
v -21 -6 0
v -22 -6 0
v -22 -5 0
v -21 -5 0
v -22 -6 0
v -23 -6 0
v -23 -5 0
v -22 -5 0
v -23 -6 0
v -24 -6 0
v -24 -5 0
v -23 -5 0
v -24 -6 0
v -25 -6 0
v -25 -5 0
v -24 -5 0
v -25 -6 0
v -26 -6 0
v -26 -5 0
v -25 -5 0
v -26 -6 0
v -27 -6 0
v -27 -5 0
v -26 -5 0
v -27 -6 0
v -28 -6 0
v -28 -5 0
v -27 -5 0
v -28 -6 0
v -29 -6 0
v -29 -5 0
v -28 -5 0
v -29 -6 0
v -30 -6 0
v -30 -5 0
v -29 -5 0

# Texture cooridinates (Count = 37)
vt 0.05555556 0.9
vt 0.1111111 0.9
vt 0.1111111 0.95
vt 0.05555556 0.95
vt 0.1666667 0.9
vt 0.2222222 0.9
vt 0.2222222 0.95
vt 0.1666667 0.95
vt 0.05555556 0.85
vt 0.1111111 0.85
vt 0.1666667 0.75
vt 0.2222222 0.75
vt 0.2222222 0.8
vt 0.1666667 0.8
vt 0.2777778 0.9
vt 0.2777778 0.95
vt 0.1111111 0.8
vt 0.1666667 0.85
vt 0.2222222 0.85
vt 0.2777778 0.8
vt 0.2777778 0.85
vt 0.05555556 0.8
vt 0.2777778 0.75
vt 0.1111111 0.75
vt 0.05555556 0.75
vt 0 0.65
vt 0.05555556 0.65
vt 0.05555556 0.7
vt 0 0.7
vt 0.1111111 0.65
vt 0.1111111 0.7
vt 0.1666667 0.7
vt 0.2222222 0.7
vt 0.2777778 0.7
vt 0 0.6
vt 0.05555556 0.6
vt 0.1111111 0.6

# Normal
vn 0 0 -1

# Mesh description
g forest2-(2)_mesh_0002

# Faces
f 1/1/1 2/2/1 3/3/1 4/4/1
f 5/5/1 6/6/1 7/7/1 8/8/1
f 9/9/1 10/10/1 11/2/1 12/1/1
f 13/11/1 14/12/1 15/13/1 16/14/1
f 17/6/1 18/15/1 19/16/1 20/7/1
f 21/17/1 22/14/1 23/18/1 24/10/1
f 25/2/1 26/5/1 27/8/1 28/3/1
f 29/18/1 30/19/1 31/6/1 32/5/1
f 33/9/1 34/10/1 35/2/1 36/1/1
f 37/14/1 38/13/1 39/19/1 40/18/1
f 41/13/1 42/20/1 43/21/1 44/19/1
f 45/1/1 46/2/1 47/3/1 48/4/1
f 49/22/1 50/17/1 51/10/1 52/9/1
f 53/6/1 54/15/1 55/16/1 56/7/1
f 57/22/1 58/17/1 59/10/1 60/9/1
f 61/5/1 62/6/1 63/7/1 64/8/1
f 65/10/1 66/18/1 67/5/1 68/2/1
f 69/13/1 70/20/1 71/21/1 72/19/1
f 73/10/1 74/18/1 75/5/1 76/2/1
f 77/13/1 78/20/1 79/21/1 80/19/1
f 81/12/1 82/23/1 83/20/1 84/13/1
f 85/11/1 86/12/1 87/13/1 88/14/1
f 89/17/1 90/14/1 91/18/1 92/10/1
f 93/2/1 94/5/1 95/8/1 96/3/1
f 97/10/1 98/18/1 99/5/1 100/2/1
f 101/9/1 102/10/1 103/2/1 104/1/1
f 105/24/1 106/11/1 107/14/1 108/17/1
f 109/17/1 110/14/1 111/18/1 112/10/1
f 113/5/1 114/6/1 115/7/1 116/8/1
f 117/14/1 118/13/1 119/19/1 120/18/1
f 121/18/1 122/19/1 123/6/1 124/5/1
f 125/18/1 126/19/1 127/6/1 128/5/1
f 129/12/1 130/23/1 131/20/1 132/13/1
f 133/12/1 134/23/1 135/20/1 136/13/1
f 137/13/1 138/20/1 139/21/1 140/19/1
f 141/14/1 142/13/1 143/19/1 144/18/1
f 145/11/1 146/12/1 147/13/1 148/14/1
f 149/9/1 150/10/1 151/2/1 152/1/1
f 153/17/1 154/14/1 155/18/1 156/10/1
f 157/22/1 158/17/1 159/10/1 160/9/1
f 161/14/1 162/13/1 163/19/1 164/18/1
f 165/9/1 166/10/1 167/2/1 168/1/1
f 169/12/1 170/23/1 171/20/1 172/13/1
f 173/6/1 174/15/1 175/16/1 176/7/1
f 177/19/1 178/21/1 179/15/1 180/6/1
f 181/13/1 182/20/1 183/21/1 184/19/1
f 185/17/1 186/14/1 187/18/1 188/10/1
f 189/10/1 190/18/1 191/5/1 192/2/1
f 193/18/1 194/19/1 195/6/1 196/5/1
f 197/12/1 198/23/1 199/20/1 200/13/1
f 201/12/1 202/23/1 203/20/1 204/13/1
f 205/2/1 206/5/1 207/8/1 208/3/1
f 209/6/1 210/15/1 211/16/1 212/7/1
f 213/9/1 214/10/1 215/2/1 216/1/1
f 217/18/1 218/19/1 219/6/1 220/5/1
f 221/2/1 222/5/1 223/8/1 224/3/1
f 225/2/1 226/5/1 227/8/1 228/3/1
f 229/18/1 230/19/1 231/6/1 232/5/1
f 233/13/1 234/20/1 235/21/1 236/19/1
f 237/24/1 238/11/1 239/14/1 240/17/1
f 241/24/1 242/11/1 243/14/1 244/17/1
f 245/14/1 246/13/1 247/19/1 248/18/1
f 249/18/1 250/19/1 251/6/1 252/5/1
f 253/9/1 254/10/1 255/2/1 256/1/1
f 257/10/1 258/18/1 259/5/1 260/2/1
f 261/22/1 262/17/1 263/10/1 264/9/1
f 265/13/1 266/20/1 267/21/1 268/19/1
f 269/24/1 270/11/1 271/14/1 272/17/1
f 273/9/1 274/10/1 275/2/1 276/1/1
f 277/9/1 278/10/1 279/2/1 280/1/1
f 281/11/1 282/12/1 283/13/1 284/14/1
f 285/13/1 286/20/1 287/21/1 288/19/1
f 289/19/1 290/21/1 291/15/1 292/6/1
f 293/19/1 294/21/1 295/15/1 296/6/1
f 297/13/1 298/20/1 299/21/1 300/19/1
f 301/11/1 302/12/1 303/13/1 304/14/1
f 305/2/1 306/5/1 307/8/1 308/3/1
f 309/17/1 310/14/1 311/18/1 312/10/1
f 313/22/1 314/17/1 315/10/1 316/9/1
f 317/17/1 318/14/1 319/18/1 320/10/1
f 321/24/1 322/11/1 323/14/1 324/17/1
f 325/11/1 326/12/1 327/13/1 328/14/1
f 329/10/1 330/18/1 331/5/1 332/2/1
f 333/2/1 334/5/1 335/8/1 336/3/1
f 337/14/1 338/13/1 339/19/1 340/18/1
f 341/2/1 342/5/1 343/8/1 344/3/1
f 345/2/1 346/5/1 347/8/1 348/3/1
f 349/17/1 350/14/1 351/18/1 352/10/1
f 353/13/1 354/20/1 355/21/1 356/19/1
f 357/25/1 358/24/1 359/17/1 360/22/1
f 361/10/1 362/18/1 363/5/1 364/2/1
f 365/12/1 366/23/1 367/20/1 368/13/1
f 369/5/1 370/6/1 371/7/1 372/8/1
f 373/13/1 374/20/1 375/21/1 376/19/1
f 377/11/1 378/12/1 379/13/1 380/14/1
f 381/25/1 382/24/1 383/17/1 384/22/1
f 385/10/1 386/18/1 387/5/1 388/2/1
f 389/10/1 390/18/1 391/5/1 392/2/1
f 393/19/1 394/21/1 395/15/1 396/6/1
f 397/13/1 398/20/1 399/21/1 400/19/1
f 401/6/1 402/15/1 403/16/1 404/7/1
f 405/17/1 406/14/1 407/18/1 408/10/1
f 409/11/1 410/12/1 411/13/1 412/14/1
f 413/2/1 414/5/1 415/8/1 416/3/1
f 417/10/1 418/18/1 419/5/1 420/2/1
f 421/17/1 422/14/1 423/18/1 424/10/1
f 425/12/1 426/23/1 427/20/1 428/13/1
f 429/17/1 430/14/1 431/18/1 432/10/1
f 433/18/1 434/19/1 435/6/1 436/5/1
f 437/25/1 438/24/1 439/17/1 440/22/1
f 441/2/1 442/5/1 443/8/1 444/3/1
f 445/17/1 446/14/1 447/18/1 448/10/1
f 449/13/1 450/20/1 451/21/1 452/19/1
f 453/25/1 454/24/1 455/17/1 456/22/1
f 457/2/1 458/5/1 459/8/1 460/3/1
f 461/25/1 462/24/1 463/17/1 464/22/1
f 465/19/1 466/21/1 467/15/1 468/6/1
f 469/17/1 470/14/1 471/18/1 472/10/1
f 473/9/1 474/10/1 475/2/1 476/1/1
f 477/17/1 478/14/1 479/18/1 480/10/1
f 481/17/1 482/14/1 483/18/1 484/10/1
f 485/12/1 486/23/1 487/20/1 488/13/1
f 489/19/1 490/21/1 491/15/1 492/6/1
f 493/25/1 494/24/1 495/17/1 496/22/1
f 497/5/1 498/6/1 499/7/1 500/8/1
f 501/11/1 502/12/1 503/13/1 504/14/1
f 505/17/1 506/14/1 507/18/1 508/10/1
f 509/9/1 510/10/1 511/2/1 512/1/1
f 513/12/1 514/23/1 515/20/1 516/13/1
f 517/12/1 518/23/1 519/20/1 520/13/1
f 521/13/1 522/20/1 523/21/1 524/19/1
f 525/1/1 526/2/1 527/3/1 528/4/1
f 529/2/1 530/5/1 531/8/1 532/3/1
f 533/2/1 534/5/1 535/8/1 536/3/1
f 537/26/1 538/27/1 539/28/1 540/29/1
f 541/27/1 542/30/1 543/31/1 544/28/1
f 545/13/1 546/20/1 547/21/1 548/19/1
f 549/25/1 550/24/1 551/17/1 552/22/1
f 553/5/1 554/6/1 555/7/1 556/8/1
f 557/11/1 558/12/1 559/13/1 560/14/1
f 561/12/1 562/23/1 563/20/1 564/13/1
f 565/1/1 566/2/1 567/3/1 568/4/1
f 569/14/1 570/13/1 571/19/1 572/18/1
f 573/1/1 574/2/1 575/3/1 576/4/1
f 577/14/1 578/13/1 579/19/1 580/18/1
f 581/19/1 582/21/1 583/15/1 584/6/1
f 585/19/1 586/21/1 587/15/1 588/6/1
f 589/22/1 590/17/1 591/10/1 592/9/1
f 593/17/1 594/14/1 595/18/1 596/10/1
f 597/18/1 598/19/1 599/6/1 600/5/1
f 601/31/1 602/32/1 603/11/1 604/24/1
f 605/33/1 606/34/1 607/23/1 608/12/1
f 609/31/1 610/32/1 611/11/1 612/24/1
f 613/32/1 614/33/1 615/12/1 616/11/1
f 617/31/1 618/32/1 619/11/1 620/24/1
f 621/31/1 622/32/1 623/11/1 624/24/1
f 625/28/1 626/31/1 627/24/1 628/25/1
f 629/33/1 630/34/1 631/23/1 632/12/1
f 633/31/1 634/32/1 635/11/1 636/24/1
f 637/31/1 638/32/1 639/11/1 640/24/1
f 641/31/1 642/32/1 643/11/1 644/24/1
f 645/32/1 646/33/1 647/12/1 648/11/1
f 649/28/1 650/31/1 651/24/1 652/25/1
f 653/33/1 654/34/1 655/23/1 656/12/1
f 657/35/1 658/36/1 659/27/1 660/26/1
f 661/36/1 662/37/1 663/30/1 664/27/1
f 665/31/1 666/32/1 667/11/1 668/24/1
f 669/28/1 670/31/1 671/24/1 672/25/1
f 673/31/1 674/32/1 675/11/1 676/24/1
f 677/32/1 678/33/1 679/12/1 680/11/1
f 681/31/1 682/32/1 683/11/1 684/24/1
f 685/32/1 686/33/1 687/12/1 688/11/1
f 689/28/1 690/31/1 691/24/1 692/25/1
f 693/31/1 694/32/1 695/11/1 696/24/1
f 697/31/1 698/32/1 699/11/1 700/24/1
f 701/32/1 702/33/1 703/12/1 704/11/1
f 705/33/1 706/34/1 707/23/1 708/12/1
f 709/28/1 710/31/1 711/24/1 712/25/1
f 713/28/1 714/31/1 715/24/1 716/25/1
f 717/28/1 718/31/1 719/24/1 720/25/1

