# Tiled2Unity generated file. Do not modify by hand.
# Wavefront file for 'forest2-(2)_mesh_0003.obj'

# Vertices (Count = 352)
v -13 -7 0
v -14 -7 0
v -14 -6 0
v -13 -6 0
v -14 -7 0
v -15 -7 0
v -15 -6 0
v -14 -6 0
v -15 -7 0
v -16 -7 0
v -16 -6 0
v -15 -6 0
v -16 -7 0
v -17 -7 0
v -17 -6 0
v -16 -6 0
v -13 -8 0
v -14 -8 0
v -14 -7 0
v -13 -7 0
v -14 -8 0
v -15 -8 0
v -15 -7 0
v -14 -7 0
v -15 -8 0
v -16 -8 0
v -16 -7 0
v -15 -7 0
v -16 -8 0
v -17 -8 0
v -17 -7 0
v -16 -7 0
v -13 -9 0
v -14 -9 0
v -14 -8 0
v -13 -8 0
v -14 -9 0
v -15 -9 0
v -15 -8 0
v -14 -8 0
v -15 -9 0
v -16 -9 0
v -16 -8 0
v -15 -8 0
v -16 -9 0
v -17 -9 0
v -17 -8 0
v -16 -8 0
v -13 -10 0
v -14 -10 0
v -14 -9 0
v -13 -9 0
v -14 -10 0
v -15 -10 0
v -15 -9 0
v -14 -9 0
v -15 -10 0
v -16 -10 0
v -16 -9 0
v -15 -9 0
v -16 -10 0
v -17 -10 0
v -17 -9 0
v -16 -9 0
v -13 -11 0
v -14 -11 0
v -14 -10 0
v -13 -10 0
v -14 -11 0
v -15 -11 0
v -15 -10 0
v -14 -10 0
v -15 -11 0
v -16 -11 0
v -16 -10 0
v -15 -10 0
v -16 -11 0
v -17 -11 0
v -17 -10 0
v -16 -10 0
v 0 -12 0
v -1 -12 0
v -1 -11 0
v 0 -11 0
v -1 -12 0
v -2 -12 0
v -2 -11 0
v -1 -11 0
v -2 -12 0
v -3 -12 0
v -3 -11 0
v -2 -11 0
v -3 -12 0
v -4 -12 0
v -4 -11 0
v -3 -11 0
v -4 -12 0
v -5 -12 0
v -5 -11 0
v -4 -11 0
v -5 -12 0
v -6 -12 0
v -6 -11 0
v -5 -11 0
v -6 -12 0
v -7 -12 0
v -7 -11 0
v -6 -11 0
v -7 -12 0
v -8 -12 0
v -8 -11 0
v -7 -11 0
v -8 -12 0
v -9 -12 0
v -9 -11 0
v -8 -11 0
v -9 -12 0
v -10 -12 0
v -10 -11 0
v -9 -11 0
v -10 -12 0
v -11 -12 0
v -11 -11 0
v -10 -11 0
v -11 -12 0
v -12 -12 0
v -12 -11 0
v -11 -11 0
v -12 -12 0
v -13 -12 0
v -13 -11 0
v -12 -11 0
v -13 -12 0
v -14 -12 0
v -14 -11 0
v -13 -11 0
v -14 -12 0
v -15 -12 0
v -15 -11 0
v -14 -11 0
v -15 -12 0
v -16 -12 0
v -16 -11 0
v -15 -11 0
v -16 -12 0
v -17 -12 0
v -17 -11 0
v -16 -11 0
v 0 -13 0
v -1 -13 0
v -1 -12 0
v 0 -12 0
v -1 -13 0
v -2 -13 0
v -2 -12 0
v -1 -12 0
v -2 -13 0
v -3 -13 0
v -3 -12 0
v -2 -12 0
v -3 -13 0
v -4 -13 0
v -4 -12 0
v -3 -12 0
v -4 -13 0
v -5 -13 0
v -5 -12 0
v -4 -12 0
v -5 -13 0
v -6 -13 0
v -6 -12 0
v -5 -12 0
v -6 -13 0
v -7 -13 0
v -7 -12 0
v -6 -12 0
v -7 -13 0
v -8 -13 0
v -8 -12 0
v -7 -12 0
v -8 -13 0
v -9 -13 0
v -9 -12 0
v -8 -12 0
v -9 -13 0
v -10 -13 0
v -10 -12 0
v -9 -12 0
v -10 -13 0
v -11 -13 0
v -11 -12 0
v -10 -12 0
v -11 -13 0
v -12 -13 0
v -12 -12 0
v -11 -12 0
v -12 -13 0
v -13 -13 0
v -13 -12 0
v -12 -12 0
v -13 -13 0
v -14 -13 0
v -14 -12 0
v -13 -12 0
v -14 -13 0
v -15 -13 0
v -15 -12 0
v -14 -12 0
v -15 -13 0
v -16 -13 0
v -16 -12 0
v -15 -12 0
v -16 -13 0
v -17 -13 0
v -17 -12 0
v -16 -12 0
v 0 -14 0
v -1 -14 0
v -1 -13 0
v 0 -13 0
v -1 -14 0
v -2 -14 0
v -2 -13 0
v -1 -13 0
v -2 -14 0
v -3 -14 0
v -3 -13 0
v -2 -13 0
v -3 -14 0
v -4 -14 0
v -4 -13 0
v -3 -13 0
v -4 -14 0
v -5 -14 0
v -5 -13 0
v -4 -13 0
v -5 -14 0
v -6 -14 0
v -6 -13 0
v -5 -13 0
v -6 -14 0
v -7 -14 0
v -7 -13 0
v -6 -13 0
v -7 -14 0
v -8 -14 0
v -8 -13 0
v -7 -13 0
v -8 -14 0
v -9 -14 0
v -9 -13 0
v -8 -13 0
v -9 -14 0
v -10 -14 0
v -10 -13 0
v -9 -13 0
v -10 -14 0
v -11 -14 0
v -11 -13 0
v -10 -13 0
v -11 -14 0
v -12 -14 0
v -12 -13 0
v -11 -13 0
v -12 -14 0
v -13 -14 0
v -13 -13 0
v -12 -13 0
v -13 -14 0
v -14 -14 0
v -14 -13 0
v -13 -13 0
v -14 -14 0
v -15 -14 0
v -15 -13 0
v -14 -13 0
v -15 -14 0
v -16 -14 0
v -16 -13 0
v -15 -13 0
v -16 -14 0
v -17 -14 0
v -17 -13 0
v -16 -13 0
v 0 -15 0
v -1 -15 0
v -1 -14 0
v 0 -14 0
v -1 -15 0
v -2 -15 0
v -2 -14 0
v -1 -14 0
v -2 -15 0
v -3 -15 0
v -3 -14 0
v -2 -14 0
v -3 -15 0
v -4 -15 0
v -4 -14 0
v -3 -14 0
v -4 -15 0
v -5 -15 0
v -5 -14 0
v -4 -14 0
v -5 -15 0
v -6 -15 0
v -6 -14 0
v -5 -14 0
v -6 -15 0
v -7 -15 0
v -7 -14 0
v -6 -14 0
v -7 -15 0
v -8 -15 0
v -8 -14 0
v -7 -14 0
v -8 -15 0
v -9 -15 0
v -9 -14 0
v -8 -14 0
v -9 -15 0
v -10 -15 0
v -10 -14 0
v -9 -14 0
v -10 -15 0
v -11 -15 0
v -11 -14 0
v -10 -14 0
v -11 -15 0
v -12 -15 0
v -12 -14 0
v -11 -14 0
v -12 -15 0
v -13 -15 0
v -13 -14 0
v -12 -14 0
v -13 -15 0
v -14 -15 0
v -14 -14 0
v -13 -14 0
v -14 -15 0
v -15 -15 0
v -15 -14 0
v -14 -14 0
v -15 -15 0
v -16 -15 0
v -16 -14 0
v -15 -14 0
v -16 -15 0
v -17 -15 0
v -17 -14 0
v -16 -14 0

# Texture cooridinates (Count = 25)
vt 0.3666667 0.4583333
vt 0.4 0.4583333
vt 0.4 0.4791667
vt 0.3666667 0.4791667
vt 0.4333333 0.4583333
vt 0.4666667 0.4583333
vt 0.4666667 0.4791667
vt 0.4333333 0.4791667
vt 0.5 0.4583333
vt 0.5 0.4791667
vt 0.3666667 0.4375
vt 0.4 0.4375
vt 0.4333333 0.4166667
vt 0.4666667 0.4166667
vt 0.4666667 0.4375
vt 0.4333333 0.4375
vt 0.4 0.4166667
vt 0.5 0.4375
vt 0.3666667 0.4166667
vt 0.5 0.4166667
vt 0.3666667 0.3958333
vt 0.4 0.3958333
vt 0.4333333 0.3958333
vt 0.4666667 0.3958333
vt 0.5 0.3958333

# Normal
vn 0 0 -1

# Mesh description
g forest2-(2)_mesh_0003

# Faces
f 1/1/1 2/2/1 3/3/1 4/4/1
f 5/5/1 6/6/1 7/7/1 8/8/1
f 9/2/1 10/5/1 11/8/1 12/3/1
f 13/6/1 14/9/1 15/10/1 16/7/1
f 17/11/1 18/12/1 19/2/1 20/1/1
f 21/13/1 22/14/1 23/15/1 24/16/1
f 25/17/1 26/13/1 27/16/1 28/12/1
f 29/15/1 30/18/1 31/9/1 32/6/1
f 33/19/1 34/17/1 35/12/1 36/11/1
f 37/16/1 38/15/1 39/6/1 40/5/1
f 41/17/1 42/13/1 43/16/1 44/12/1
f 45/14/1 46/20/1 47/18/1 48/15/1
f 49/11/1 50/12/1 51/2/1 52/1/1
f 53/13/1 54/14/1 55/15/1 56/16/1
f 57/13/1 58/14/1 59/15/1 60/16/1
f 61/15/1 62/18/1 63/9/1 64/6/1
f 65/19/1 66/17/1 67/12/1 68/11/1
f 69/12/1 70/16/1 71/5/1 72/2/1
f 73/17/1 74/13/1 75/16/1 76/12/1
f 77/15/1 78/18/1 79/9/1 80/6/1
f 81/1/1 82/2/1 83/3/1 84/4/1
f 85/5/1 86/6/1 87/7/1 88/8/1
f 89/5/1 90/6/1 91/7/1 92/8/1
f 93/5/1 94/6/1 95/7/1 96/8/1
f 97/5/1 98/6/1 99/7/1 100/8/1
f 101/5/1 102/6/1 103/7/1 104/8/1
f 105/5/1 106/6/1 107/7/1 108/8/1
f 109/5/1 110/6/1 111/7/1 112/8/1
f 113/5/1 114/6/1 115/7/1 116/8/1
f 117/5/1 118/6/1 119/7/1 120/8/1
f 121/5/1 122/6/1 123/7/1 124/8/1
f 125/5/1 126/6/1 127/7/1 128/8/1
f 129/5/1 130/6/1 131/7/1 132/8/1
f 133/5/1 134/6/1 135/7/1 136/8/1
f 137/5/1 138/6/1 139/7/1 140/8/1
f 141/5/1 142/6/1 143/7/1 144/8/1
f 145/6/1 146/9/1 147/10/1 148/7/1
f 149/19/1 150/17/1 151/12/1 152/11/1
f 153/13/1 154/14/1 155/15/1 156/16/1
f 157/17/1 158/13/1 159/16/1 160/12/1
f 161/17/1 162/13/1 163/16/1 164/12/1
f 165/17/1 166/13/1 167/16/1 168/12/1
f 169/17/1 170/13/1 171/16/1 172/12/1
f 173/17/1 174/13/1 175/16/1 176/12/1
f 177/17/1 178/13/1 179/16/1 180/12/1
f 181/17/1 182/13/1 183/16/1 184/12/1
f 185/17/1 186/13/1 187/16/1 188/12/1
f 189/17/1 190/13/1 191/16/1 192/12/1
f 193/17/1 194/13/1 195/16/1 196/12/1
f 197/17/1 198/13/1 199/16/1 200/12/1
f 201/17/1 202/13/1 203/16/1 204/12/1
f 205/17/1 206/13/1 207/16/1 208/12/1
f 209/17/1 210/13/1 211/16/1 212/12/1
f 213/14/1 214/20/1 215/18/1 216/15/1
f 217/19/1 218/17/1 219/12/1 220/11/1
f 221/17/1 222/13/1 223/16/1 224/12/1
f 225/17/1 226/13/1 227/16/1 228/12/1
f 229/17/1 230/13/1 231/16/1 232/12/1
f 233/17/1 234/13/1 235/16/1 236/12/1
f 237/17/1 238/13/1 239/16/1 240/12/1
f 241/17/1 242/13/1 243/16/1 244/12/1
f 245/17/1 246/13/1 247/16/1 248/12/1
f 249/17/1 250/13/1 251/16/1 252/12/1
f 253/17/1 254/13/1 255/16/1 256/12/1
f 257/17/1 258/13/1 259/16/1 260/12/1
f 261/17/1 262/13/1 263/16/1 264/12/1
f 265/17/1 266/13/1 267/16/1 268/12/1
f 269/17/1 270/13/1 271/16/1 272/12/1
f 273/17/1 274/13/1 275/16/1 276/12/1
f 277/17/1 278/13/1 279/16/1 280/12/1
f 281/14/1 282/20/1 283/18/1 284/15/1
f 285/21/1 286/22/1 287/17/1 288/19/1
f 289/22/1 290/23/1 291/13/1 292/17/1
f 293/23/1 294/24/1 295/14/1 296/13/1
f 297/23/1 298/24/1 299/14/1 300/13/1
f 301/23/1 302/24/1 303/14/1 304/13/1
f 305/23/1 306/24/1 307/14/1 308/13/1
f 309/23/1 310/24/1 311/14/1 312/13/1
f 313/23/1 314/24/1 315/14/1 316/13/1
f 317/23/1 318/24/1 319/14/1 320/13/1
f 321/23/1 322/24/1 323/14/1 324/13/1
f 325/23/1 326/24/1 327/14/1 328/13/1
f 329/23/1 330/24/1 331/14/1 332/13/1
f 333/23/1 334/24/1 335/14/1 336/13/1
f 337/23/1 338/24/1 339/14/1 340/13/1
f 341/23/1 342/24/1 343/14/1 344/13/1
f 345/23/1 346/24/1 347/14/1 348/13/1
f 349/24/1 350/25/1 351/20/1 352/14/1

