# Tiled2Unity generated file. Do not modify by hand.
# Wavefront file for 'cave1-(1)_mesh_0005.obj'

# Vertices (Count = 544)
v -14 -1 0
v -15 -1 0
v -15 0 0
v -14 0 0
v -15 -1 0
v -16 -1 0
v -16 0 0
v -15 0 0
v -16 -1 0
v -17 -1 0
v -17 0 0
v -16 0 0
v -17 -1 0
v -18 -1 0
v -18 0 0
v -17 0 0
v -18 -1 0
v -19 -1 0
v -19 0 0
v -18 0 0
v -19 -1 0
v -20 -1 0
v -20 0 0
v -19 0 0
v -20 -1 0
v -21 -1 0
v -21 0 0
v -20 0 0
v -21 -1 0
v -22 -1 0
v -22 0 0
v -21 0 0
v -22 -1 0
v -23 -1 0
v -23 0 0
v -22 0 0
v -23 -1 0
v -24 -1 0
v -24 0 0
v -23 0 0
v -24 -1 0
v -25 -1 0
v -25 0 0
v -24 0 0
v -25 -1 0
v -26 -1 0
v -26 0 0
v -25 0 0
v -26 -1 0
v -27 -1 0
v -27 0 0
v -26 0 0
v -27 -1 0
v -28 -1 0
v -28 0 0
v -27 0 0
v -28 -1 0
v -29 -1 0
v -29 0 0
v -28 0 0
v -29 -1 0
v -30 -1 0
v -30 0 0
v -29 0 0
v -30 -1 0
v -31 -1 0
v -31 0 0
v -30 0 0
v -14 -2 0
v -15 -2 0
v -15 -1 0
v -14 -1 0
v -15 -2 0
v -16 -2 0
v -16 -1 0
v -15 -1 0
v -16 -2 0
v -17 -2 0
v -17 -1 0
v -16 -1 0
v -17 -2 0
v -18 -2 0
v -18 -1 0
v -17 -1 0
v -18 -2 0
v -19 -2 0
v -19 -1 0
v -18 -1 0
v -19 -2 0
v -20 -2 0
v -20 -1 0
v -19 -1 0
v -20 -2 0
v -21 -2 0
v -21 -1 0
v -20 -1 0
v -21 -2 0
v -22 -2 0
v -22 -1 0
v -21 -1 0
v -22 -2 0
v -23 -2 0
v -23 -1 0
v -22 -1 0
v -23 -2 0
v -24 -2 0
v -24 -1 0
v -23 -1 0
v -24 -2 0
v -25 -2 0
v -25 -1 0
v -24 -1 0
v -25 -2 0
v -26 -2 0
v -26 -1 0
v -25 -1 0
v -26 -2 0
v -27 -2 0
v -27 -1 0
v -26 -1 0
v -27 -2 0
v -28 -2 0
v -28 -1 0
v -27 -1 0
v -28 -2 0
v -29 -2 0
v -29 -1 0
v -28 -1 0
v -29 -2 0
v -30 -2 0
v -30 -1 0
v -29 -1 0
v -30 -2 0
v -31 -2 0
v -31 -1 0
v -30 -1 0
v -14 -3 0
v -15 -3 0
v -15 -2 0
v -14 -2 0
v -15 -3 0
v -16 -3 0
v -16 -2 0
v -15 -2 0
v -16 -3 0
v -17 -3 0
v -17 -2 0
v -16 -2 0
v -17 -3 0
v -18 -3 0
v -18 -2 0
v -17 -2 0
v -18 -3 0
v -19 -3 0
v -19 -2 0
v -18 -2 0
v -19 -3 0
v -20 -3 0
v -20 -2 0
v -19 -2 0
v -20 -3 0
v -21 -3 0
v -21 -2 0
v -20 -2 0
v -21 -3 0
v -22 -3 0
v -22 -2 0
v -21 -2 0
v -22 -3 0
v -23 -3 0
v -23 -2 0
v -22 -2 0
v -23 -3 0
v -24 -3 0
v -24 -2 0
v -23 -2 0
v -24 -3 0
v -25 -3 0
v -25 -2 0
v -24 -2 0
v -25 -3 0
v -26 -3 0
v -26 -2 0
v -25 -2 0
v -26 -3 0
v -27 -3 0
v -27 -2 0
v -26 -2 0
v -27 -3 0
v -28 -3 0
v -28 -2 0
v -27 -2 0
v -28 -3 0
v -29 -3 0
v -29 -2 0
v -28 -2 0
v -29 -3 0
v -30 -3 0
v -30 -2 0
v -29 -2 0
v -30 -3 0
v -31 -3 0
v -31 -2 0
v -30 -2 0
v -14 -4 0
v -15 -4 0
v -15 -3 0
v -14 -3 0
v -15 -4 0
v -16 -4 0
v -16 -3 0
v -15 -3 0
v -16 -4 0
v -17 -4 0
v -17 -3 0
v -16 -3 0
v -17 -4 0
v -18 -4 0
v -18 -3 0
v -17 -3 0
v -18 -4 0
v -19 -4 0
v -19 -3 0
v -18 -3 0
v -19 -4 0
v -20 -4 0
v -20 -3 0
v -19 -3 0
v -20 -4 0
v -21 -4 0
v -21 -3 0
v -20 -3 0
v -21 -4 0
v -22 -4 0
v -22 -3 0
v -21 -3 0
v -22 -4 0
v -23 -4 0
v -23 -3 0
v -22 -3 0
v -23 -4 0
v -24 -4 0
v -24 -3 0
v -23 -3 0
v -24 -4 0
v -25 -4 0
v -25 -3 0
v -24 -3 0
v -25 -4 0
v -26 -4 0
v -26 -3 0
v -25 -3 0
v -26 -4 0
v -27 -4 0
v -27 -3 0
v -26 -3 0
v -27 -4 0
v -28 -4 0
v -28 -3 0
v -27 -3 0
v -28 -4 0
v -29 -4 0
v -29 -3 0
v -28 -3 0
v -29 -4 0
v -30 -4 0
v -30 -3 0
v -29 -3 0
v -30 -4 0
v -31 -4 0
v -31 -3 0
v -30 -3 0
v -14 -5 0
v -15 -5 0
v -15 -4 0
v -14 -4 0
v -15 -5 0
v -16 -5 0
v -16 -4 0
v -15 -4 0
v -16 -5 0
v -17 -5 0
v -17 -4 0
v -16 -4 0
v -17 -5 0
v -18 -5 0
v -18 -4 0
v -17 -4 0
v -18 -5 0
v -19 -5 0
v -19 -4 0
v -18 -4 0
v -19 -5 0
v -20 -5 0
v -20 -4 0
v -19 -4 0
v -20 -5 0
v -21 -5 0
v -21 -4 0
v -20 -4 0
v -21 -5 0
v -22 -5 0
v -22 -4 0
v -21 -4 0
v -22 -5 0
v -23 -5 0
v -23 -4 0
v -22 -4 0
v -23 -5 0
v -24 -5 0
v -24 -4 0
v -23 -4 0
v -24 -5 0
v -25 -5 0
v -25 -4 0
v -24 -4 0
v -25 -5 0
v -26 -5 0
v -26 -4 0
v -25 -4 0
v -26 -5 0
v -27 -5 0
v -27 -4 0
v -26 -4 0
v -27 -5 0
v -28 -5 0
v -28 -4 0
v -27 -4 0
v -28 -5 0
v -29 -5 0
v -29 -4 0
v -28 -4 0
v -29 -5 0
v -30 -5 0
v -30 -4 0
v -29 -4 0
v -30 -5 0
v -31 -5 0
v -31 -4 0
v -30 -4 0
v -14 -6 0
v -15 -6 0
v -15 -5 0
v -14 -5 0
v -15 -6 0
v -16 -6 0
v -16 -5 0
v -15 -5 0
v -16 -6 0
v -17 -6 0
v -17 -5 0
v -16 -5 0
v -17 -6 0
v -18 -6 0
v -18 -5 0
v -17 -5 0
v -18 -6 0
v -19 -6 0
v -19 -5 0
v -18 -5 0
v -19 -6 0
v -20 -6 0
v -20 -5 0
v -19 -5 0
v -20 -6 0
v -21 -6 0
v -21 -5 0
v -20 -5 0
v -21 -6 0
v -22 -6 0
v -22 -5 0
v -21 -5 0
v -22 -6 0
v -23 -6 0
v -23 -5 0
v -22 -5 0
v -23 -6 0
v -24 -6 0
v -24 -5 0
v -23 -5 0
v -24 -6 0
v -25 -6 0
v -25 -5 0
v -24 -5 0
v -25 -6 0
v -26 -6 0
v -26 -5 0
v -25 -5 0
v -26 -6 0
v -27 -6 0
v -27 -5 0
v -26 -5 0
v -27 -6 0
v -28 -6 0
v -28 -5 0
v -27 -5 0
v -28 -6 0
v -29 -6 0
v -29 -5 0
v -28 -5 0
v -29 -6 0
v -30 -6 0
v -30 -5 0
v -29 -5 0
v -30 -6 0
v -31 -6 0
v -31 -5 0
v -30 -5 0
v -14 -7 0
v -15 -7 0
v -15 -6 0
v -14 -6 0
v -15 -7 0
v -16 -7 0
v -16 -6 0
v -15 -6 0
v -16 -7 0
v -17 -7 0
v -17 -6 0
v -16 -6 0
v -17 -7 0
v -18 -7 0
v -18 -6 0
v -17 -6 0
v -18 -7 0
v -19 -7 0
v -19 -6 0
v -18 -6 0
v -19 -7 0
v -20 -7 0
v -20 -6 0
v -19 -6 0
v -20 -7 0
v -21 -7 0
v -21 -6 0
v -20 -6 0
v -21 -7 0
v -22 -7 0
v -22 -6 0
v -21 -6 0
v -22 -7 0
v -23 -7 0
v -23 -6 0
v -22 -6 0
v -23 -7 0
v -24 -7 0
v -24 -6 0
v -23 -6 0
v -24 -7 0
v -25 -7 0
v -25 -6 0
v -24 -6 0
v -25 -7 0
v -26 -7 0
v -26 -6 0
v -25 -6 0
v -26 -7 0
v -27 -7 0
v -27 -6 0
v -26 -6 0
v -27 -7 0
v -28 -7 0
v -28 -6 0
v -27 -6 0
v -28 -7 0
v -29 -7 0
v -29 -6 0
v -28 -6 0
v -29 -7 0
v -30 -7 0
v -30 -6 0
v -29 -6 0
v -30 -7 0
v -31 -7 0
v -31 -6 0
v -30 -6 0
v -14 -8 0
v -15 -8 0
v -15 -7 0
v -14 -7 0
v -15 -8 0
v -16 -8 0
v -16 -7 0
v -15 -7 0
v -16 -8 0
v -17 -8 0
v -17 -7 0
v -16 -7 0
v -17 -8 0
v -18 -8 0
v -18 -7 0
v -17 -7 0
v -18 -8 0
v -19 -8 0
v -19 -7 0
v -18 -7 0
v -19 -8 0
v -20 -8 0
v -20 -7 0
v -19 -7 0
v -20 -8 0
v -21 -8 0
v -21 -7 0
v -20 -7 0
v -21 -8 0
v -22 -8 0
v -22 -7 0
v -21 -7 0
v -22 -8 0
v -23 -8 0
v -23 -7 0
v -22 -7 0
v -23 -8 0
v -24 -8 0
v -24 -7 0
v -23 -7 0
v -24 -8 0
v -25 -8 0
v -25 -7 0
v -24 -7 0
v -25 -8 0
v -26 -8 0
v -26 -7 0
v -25 -7 0
v -26 -8 0
v -27 -8 0
v -27 -7 0
v -26 -7 0
v -27 -8 0
v -28 -8 0
v -28 -7 0
v -27 -7 0
v -28 -8 0
v -29 -8 0
v -29 -7 0
v -28 -7 0
v -29 -8 0
v -30 -8 0
v -30 -7 0
v -29 -7 0
v -30 -8 0
v -31 -8 0
v -31 -7 0
v -30 -7 0

# Texture cooridinates (Count = 90)
vt 0 0.95
vt 0.05555556 0.95
vt 0.05555556 1
vt 0 1
vt 0.1111111 0.95
vt 0.1111111 1
vt 0.3888889 0.5
vt 0.4444444 0.5
vt 0.4444444 0.55
vt 0.3888889 0.55
vt 0.5 0.5
vt 0.5 0.55
vt 0.5555556 0.5
vt 0.5555556 0.55
vt 0.1666667 0.95
vt 0.1666667 1
vt 0.2222222 0.95
vt 0.2222222 1
vt 0.2777778 0.95
vt 0.2777778 1
vt 0.3333333 0.95
vt 0.3333333 1
vt 0 0.8
vt 0.05555556 0.8
vt 0.05555556 0.85
vt 0 0.85
vt 0.1111111 0.85
vt 0.1666667 0.85
vt 0.1666667 0.9
vt 0.1111111 0.9
vt 0.2222222 0.85
vt 0.2222222 0.9
vt 0.2777778 0.85
vt 0.2777778 0.9
vt 0 0.25
vt 0.05555556 0.25
vt 0.05555556 0.3
vt 0 0.3
vt 0.1111111 0.25
vt 0.1111111 0.3
vt 0.1666667 0.25
vt 0.1666667 0.3
vt 0.2222222 0.25
vt 0.2222222 0.3
vt 0.2777778 0.25
vt 0.2777778 0.3
vt 0.3333333 0.25
vt 0.3333333 0.3
vt 0.05555556 0.9
vt 0.3333333 0.9
vt 0.1111111 0.8
vt 0.1666667 0.8
vt 0.2222222 0.8
vt 0.2777778 0.8
vt 0.3333333 0.85
vt 0.1111111 0.75
vt 0.1666667 0.75
vt 0.2222222 0.75
vt 0.2777778 0.75
vt 0.3333333 0.8
vt 0.3333333 0.75
vt 0 0.2
vt 0.05555556 0.2
vt 0.2777778 0.2
vt 0.3333333 0.2
vt 0 0.15
vt 0.05555556 0.15
vt 0.1111111 0.15
vt 0.1111111 0.2
vt 0.1666667 0.15
vt 0.1666667 0.2
vt 0.2222222 0.15
vt 0.2222222 0.2
vt 0.2777778 0.15
vt 0.3333333 0.15
vt 0 0.7
vt 0.05555556 0.7
vt 0.05555556 0.75
vt 0 0.75
vt 0.1111111 0.7
vt 0.1666667 0.7
vt 0.2222222 0.7
vt 0 0.1
vt 0.05555556 0.1
vt 0.1111111 0.1
vt 0.1666667 0.1
vt 0.2222222 0.1
vt 0.2777778 0.1
vt 0.2777778 0.7
vt 0.3333333 0.7

# Normal
vn 0 0 -1

# Mesh description
g cave1-(1)_mesh_0005

# Faces
f 1/1/1 2/2/1 3/3/1 4/4/1
f 5/2/1 6/5/1 7/6/1 8/3/1
f 9/2/1 10/5/1 11/6/1 12/3/1
f 13/2/1 14/5/1 15/6/1 16/3/1
f 17/2/1 18/5/1 19/6/1 20/3/1
f 21/2/1 22/5/1 23/6/1 24/3/1
f 25/7/1 26/8/1 27/9/1 28/10/1
f 29/7/1 30/8/1 31/9/1 32/10/1
f 33/8/1 34/11/1 35/12/1 36/9/1
f 37/11/1 38/13/1 39/14/1 40/12/1
f 41/5/1 42/15/1 43/16/1 44/6/1
f 45/5/1 46/15/1 47/16/1 48/6/1
f 49/5/1 50/15/1 51/16/1 52/6/1
f 53/5/1 54/15/1 55/16/1 56/6/1
f 57/15/1 58/17/1 59/18/1 60/16/1
f 61/17/1 62/19/1 63/20/1 64/18/1
f 65/19/1 66/21/1 67/22/1 68/20/1
f 69/23/1 70/24/1 71/25/1 72/26/1
f 73/27/1 74/28/1 75/29/1 76/30/1
f 77/28/1 78/31/1 79/32/1 80/29/1
f 81/31/1 82/33/1 83/34/1 84/32/1
f 85/32/1 86/34/1 87/19/1 88/17/1
f 89/35/1 90/36/1 91/37/1 92/38/1
f 93/36/1 94/39/1 95/40/1 96/37/1
f 97/39/1 98/41/1 99/42/1 100/40/1
f 101/41/1 102/43/1 103/44/1 104/42/1
f 105/43/1 106/45/1 107/46/1 108/44/1
f 109/45/1 110/47/1 111/48/1 112/46/1
f 113/25/1 114/27/1 115/30/1 116/49/1
f 117/49/1 118/30/1 119/5/1 120/2/1
f 121/30/1 122/29/1 123/15/1 124/5/1
f 125/29/1 126/32/1 127/17/1 128/15/1
f 129/32/1 130/34/1 131/19/1 132/17/1
f 133/34/1 134/50/1 135/21/1 136/19/1
f 137/23/1 138/24/1 139/25/1 140/26/1
f 141/51/1 142/52/1 143/28/1 144/27/1
f 145/52/1 146/53/1 147/31/1 148/28/1
f 149/53/1 150/54/1 151/33/1 152/31/1
f 153/31/1 154/33/1 155/34/1 156/32/1
f 157/35/1 158/36/1 159/37/1 160/38/1
f 161/36/1 162/39/1 163/40/1 164/37/1
f 165/39/1 166/41/1 167/42/1 168/40/1
f 169/41/1 170/43/1 171/44/1 172/42/1
f 173/43/1 174/45/1 175/46/1 176/44/1
f 177/45/1 178/47/1 179/48/1 180/46/1
f 181/24/1 182/51/1 183/27/1 184/25/1
f 185/49/1 186/30/1 187/5/1 188/2/1
f 189/30/1 190/29/1 191/15/1 192/5/1
f 193/29/1 194/32/1 195/17/1 196/15/1
f 197/31/1 198/33/1 199/34/1 200/32/1
f 201/33/1 202/55/1 203/50/1 204/34/1
f 205/23/1 206/24/1 207/25/1 208/26/1
f 209/56/1 210/57/1 211/52/1 212/51/1
f 213/57/1 214/58/1 215/53/1 216/52/1
f 217/58/1 218/59/1 219/54/1 220/53/1
f 221/53/1 222/54/1 223/33/1 224/31/1
f 225/35/1 226/36/1 227/37/1 228/38/1
f 229/36/1 230/39/1 231/40/1 232/37/1
f 233/39/1 234/41/1 235/42/1 236/40/1
f 237/41/1 238/43/1 239/44/1 240/42/1
f 241/43/1 242/45/1 243/46/1 244/44/1
f 245/45/1 246/47/1 247/48/1 248/46/1
f 249/49/1 250/30/1 251/5/1 252/2/1
f 253/30/1 254/29/1 255/15/1 256/5/1
f 257/29/1 258/32/1 259/17/1 260/15/1
f 261/32/1 262/34/1 263/19/1 264/17/1
f 265/53/1 266/54/1 267/33/1 268/31/1
f 269/54/1 270/60/1 271/55/1 272/33/1
f 273/23/1 274/24/1 275/25/1 276/26/1
f 277/49/1 278/30/1 279/5/1 280/2/1
f 281/30/1 282/29/1 283/15/1 284/5/1
f 285/29/1 286/32/1 287/17/1 288/15/1
f 289/32/1 290/34/1 291/19/1 292/17/1
f 293/35/1 294/36/1 295/37/1 296/38/1
f 297/36/1 298/39/1 299/40/1 300/37/1
f 301/39/1 302/41/1 303/42/1 304/40/1
f 305/41/1 306/43/1 307/44/1 308/42/1
f 309/43/1 310/45/1 311/46/1 312/44/1
f 313/45/1 314/47/1 315/48/1 316/46/1
f 317/49/1 318/30/1 319/5/1 320/2/1
f 321/49/1 322/30/1 323/5/1 324/2/1
f 325/30/1 326/29/1 327/15/1 328/5/1
f 329/29/1 330/32/1 331/17/1 332/15/1
f 333/58/1 334/59/1 335/54/1 336/53/1
f 337/59/1 338/61/1 339/60/1 340/54/1
f 341/23/1 342/24/1 343/25/1 344/26/1
f 345/25/1 346/27/1 347/30/1 348/49/1
f 349/27/1 350/28/1 351/29/1 352/30/1
f 353/28/1 354/31/1 355/32/1 356/29/1
f 357/31/1 358/33/1 359/34/1 360/32/1
f 361/62/1 362/63/1 363/36/1 364/35/1
f 365/36/1 366/39/1 367/40/1 368/37/1
f 369/39/1 370/41/1 371/42/1 372/40/1
f 373/41/1 374/43/1 375/44/1 376/42/1
f 377/43/1 378/45/1 379/46/1 380/44/1
f 381/64/1 382/65/1 383/47/1 384/45/1
f 385/25/1 386/27/1 387/30/1 388/49/1
f 389/25/1 390/27/1 391/30/1 392/49/1
f 393/27/1 394/28/1 395/29/1 396/30/1
f 397/28/1 398/31/1 399/32/1 400/29/1
f 401/58/1 402/59/1 403/54/1 404/53/1
f 405/59/1 406/61/1 407/60/1 408/54/1
f 409/23/1 410/24/1 411/25/1 412/26/1
f 413/24/1 414/51/1 415/27/1 416/25/1
f 417/51/1 418/52/1 419/28/1 420/27/1
f 421/52/1 422/53/1 423/31/1 424/28/1
f 425/53/1 426/54/1 427/33/1 428/31/1
f 429/66/1 430/67/1 431/63/1 432/62/1
f 433/67/1 434/68/1 435/69/1 436/63/1
f 437/68/1 438/70/1 439/71/1 440/69/1
f 441/70/1 442/72/1 443/73/1 444/71/1
f 445/72/1 446/74/1 447/64/1 448/73/1
f 449/74/1 450/75/1 451/65/1 452/64/1
f 453/24/1 454/51/1 455/27/1 456/25/1
f 457/24/1 458/51/1 459/27/1 460/25/1
f 461/51/1 462/52/1 463/28/1 464/27/1
f 465/52/1 466/53/1 467/31/1 468/28/1
f 469/58/1 470/59/1 471/54/1 472/53/1
f 473/59/1 474/61/1 475/60/1 476/54/1
f 477/76/1 478/77/1 479/78/1 480/79/1
f 481/77/1 482/80/1 483/56/1 484/78/1
f 485/80/1 486/81/1 487/57/1 488/56/1
f 489/81/1 490/82/1 491/58/1 492/57/1
f 493/80/1 494/81/1 495/57/1 496/56/1
f 497/83/1 498/84/1 499/67/1 500/66/1
f 501/84/1 502/85/1 503/68/1 504/67/1
f 505/85/1 506/86/1 507/70/1 508/68/1
f 509/86/1 510/87/1 511/72/1 512/70/1
f 513/87/1 514/88/1 515/74/1 516/72/1
f 517/76/1 518/77/1 519/78/1 520/79/1
f 521/77/1 522/80/1 523/56/1 524/78/1
f 525/80/1 526/81/1 527/57/1 528/56/1
f 529/81/1 530/82/1 531/58/1 532/57/1
f 533/82/1 534/89/1 535/59/1 536/58/1
f 537/89/1 538/90/1 539/61/1 540/59/1
f 541/89/1 542/90/1 543/61/1 544/59/1

